<?xml version="1.0" encoding="utf-8"?>
<!-- Generator: Adobe Illustrator 16.0.0, SVG Export Plug-In . SVG Version: 6.00 Build 0)  -->
<!DOCTYPE svg PUBLIC "-//W3C//DTD SVG 1.1//EN" "http://www.w3.org/Graphics/SVG/1.1/DTD/svg11.dtd">
<svg version="1.1" id="Layer_1" xmlns="http://www.w3.org/2000/svg" xmlns:xlink="http://www.w3.org/1999/xlink" x="0px" y="0px"
	 width="89.334px" height="26.667px" viewBox="0 0 89.334 26.667" enable-background="new 0 0 89.334 26.667" xml:space="preserve">
<g>
	<path fill="#FFFFFF" d="M19.365,19.345l-7.189-7.158c-0.369-0.372-0.674-0.555-0.916-0.555c-0.178,0-0.285,0.125-0.313,0.376
		c0,0.271,0.162,0.586,0.49,0.947l6.416,6.391H7.101H6.125H3.052v-2.792v-3.226l3.075,0.763v2.463h4.666l-1.229-1.262
		c-0.502-0.508-0.892-1.021-1.172-1.539c-0.279-0.516-0.42-0.988-0.42-1.418v-0.375l0.045-0.375l0.166-0.721
		c0.119-0.56,0.465-1.084,1.035-1.576c0.57-0.49,1.221-0.736,1.951-0.736c0.902,0,1.752,0.37,2.553,1.107l6.953,6.878l0.473,0.012
		v2.793h-1.785v-0.004h0.002V19.345z M8.662,23.682c-0.223,0-0.396-0.03-0.522-0.089c-0.126-0.063-0.295-0.176-0.508-0.346
		c-0.101-0.104-0.196-0.25-0.287-0.451l-0.076-0.271V22.27c0-0.392,0.131-0.729,0.39-1.021c0.321-0.271,0.662-0.402,1.021-0.402
		c0.311,0,0.623,0.136,0.938,0.41c0.314,0.271,0.471,0.611,0.471,1.014c0,0.212-0.021,0.371-0.065,0.48
		c-0.047,0.104-0.1,0.192-0.159,0.254c-0.031,0.072-0.103,0.147-0.214,0.238C9.408,23.537,9.078,23.682,8.662,23.682z
		 M11.754,23.682c-0.389,0-0.729-0.146-1.021-0.438c-0.079-0.076-0.18-0.224-0.3-0.432c-0.051-0.182-0.086-0.359-0.104-0.542
		c0-0.33,0.133-0.671,0.402-1.021c0.07-0.069,0.227-0.17,0.467-0.306l0.555-0.104c0.311,0,0.623,0.138,0.938,0.408
		c0.316,0.274,0.473,0.61,0.473,1.018c0,0.212-0.021,0.371-0.065,0.479C13.053,22.854,13,22.943,12.941,23
		c-0.028,0.072-0.1,0.152-0.211,0.238C12.492,23.537,12.164,23.682,11.754,23.682z"/>
	<path fill="#FFFFFF" d="M20.533,19.343v-2.76h4.022V6.224l3.078-1.021v14.14H20.533L20.533,19.343z M23.565,23.682
		c-0.19,0-0.35-0.026-0.479-0.074l-0.301-0.149c-0.069-0.043-0.144-0.105-0.226-0.213c-0.271-0.24-0.405-0.563-0.405-0.975
		c0-0.35,0.137-0.689,0.405-1.021c0.301-0.271,0.636-0.4,1.006-0.4c0.33,0,0.661,0.136,0.99,0.4c0.28,0.279,0.421,0.619,0.421,1.021
		c0,0.161-0.031,0.318-0.09,0.475c-0.061,0.151-0.171,0.322-0.331,0.5C24.297,23.537,23.966,23.682,23.565,23.682z"/>
	<path fill="#FFFFFF" d="M33.846,19.343L33.8,20.095c-0.028,0.3-0.083,0.539-0.163,0.722c-0.143,0.457-0.342,0.899-0.6,1.317
		c-0.432,0.763-1.412,1.141-2.938,1.141c-0.431,0-1.005-0.059-1.724-0.182c0.966-0.328,1.604-0.778,1.908-1.352
		c0.346-0.529,0.521-1.104,0.521-1.729v-0.417v-0.182V19.19V6.225l3.047-1.021v11.348h2.269v2.794L33.846,19.343L33.846,19.343z"/>
	<path fill="#FFFFFF" d="M35.183,19.36v-2.759h3.405l-1.2-1.848V8.125c0-0.981,0.305-1.729,0.915-2.239
		c0.312-0.22,0.643-0.388,0.99-0.502c0.35-0.116,0.72-0.173,1.109-0.173h2.609c0.684,0,1.312,0.336,1.881,1.007
		c0.26,0.321,0.453,0.667,0.595,1.036c0.134,0.372,0.199,0.737,0.199,1.098v0.24v6.164c-0.897,0-1.649-0.256-2.251-0.766
		c-0.552-0.533-0.824-1.295-0.824-2.287v-2.8c0-0.27-0.09-0.496-0.271-0.678c-0.181-0.149-0.405-0.255-0.675-0.314h-0.182
		c-0.238,0-0.453,0.075-0.643,0.225c-0.192,0.15-0.315,0.416-0.379,0.796v5.938l1.201,1.729h4.021h2.28l-1.289,2.759L35.183,19.36
		L35.183,19.36z"/>
</g>
<g>
	<rect id="green" x="55.251" y="2.166" fill="#00732F" width="33.083" height="7.833"/>
	<rect x="55.251" y="9.999" fill="#FFFFFF" width="33.083" height="7.833"/>
	<rect x="55.251" y="17.832" width="33.083" height="7.836"/>
	<rect id="red" x="55.251" y="2.166" fill="#FF0000" width="8.271" height="23.501"/>
</g>
<g display="none">
	<rect id="green_1_" x="149.708" y="-43.5" display="inline" fill="#009E49" width="92.533" height="22.25"/>
	<rect x="149.708" y="-21.25" display="inline" fill="#FFFFFF" width="92.533" height="22.25"/>
	<rect x="149.708" y="1" display="inline" width="92.533" height="22.25"/>
	<rect id="red_1_" x="149.708" y="-43.5" display="inline" fill="#CE1126" width="23.131" height="66.75"/>
</g>
</svg>
