<?xml version="1.0" encoding="utf-8"?>
<!-- Generator: Adobe Illustrator 16.0.0, SVG Export Plug-In . SVG Version: 6.00 Build 0)  -->
<!DOCTYPE svg PUBLIC "-//W3C//DTD SVG 1.1//EN" "http://www.w3.org/Graphics/SVG/1.1/DTD/svg11.dtd">
<svg version="1.1" id="Layer_1" xmlns="http://www.w3.org/2000/svg" xmlns:xlink="http://www.w3.org/1999/xlink" x="0px" y="0px"
	 width="330px" height="28.667px" viewBox="0 0 330 28.667" enable-background="new 0 0 330 28.667" xml:space="preserve">
<g>
	<g>
		<path fill="#B6252C" d="M7.327,26.417H1.672V1.821h5.655V26.417z"/>
		<path fill="#B6252C" d="M26.501,1.855h5.655v24.562h-6.124l-8.031-14.322v14.322h-5.655V1.922h6.157l7.998,14.289V1.855z"/>
		<path fill="#B6252C" d="M44.237,26.885c-0.781,0-1.556-0.106-2.326-0.318c-0.77-0.212-1.501-0.54-2.192-0.987
			c-1.205-0.78-2.142-1.79-2.811-3.028s-1.004-2.593-1.004-4.065h5.655c0,0.669,0.145,1.188,0.435,1.557
			c0.29,0.368,0.546,0.618,0.77,0.752c0.402,0.268,0.836,0.413,1.305,0.436c0.468,0.022,0.925-0.067,1.372-0.268
			c0.312-0.134,0.563-0.302,0.753-0.502c0.189-0.201,0.334-0.396,0.435-0.586c0.1-0.189,0.161-0.373,0.184-0.552
			c0.021-0.178,0.033-0.323,0.033-0.435c0-0.111-0.012-0.256-0.033-0.435c-0.023-0.178-0.084-0.368-0.184-0.569
			c-0.101-0.201-0.246-0.396-0.435-0.585c-0.19-0.189-0.441-0.362-0.753-0.519c-0.246-0.111-0.508-0.212-0.787-0.301
			c-0.279-0.089-0.575-0.189-0.887-0.301c-0.558-0.178-1.138-0.379-1.74-0.602c-0.602-0.223-1.205-0.524-1.807-0.904
			c-0.781-0.49-1.439-1.104-1.975-1.84c-0.535-0.736-0.92-1.528-1.154-2.376c-0.234-0.848-0.313-1.723-0.234-2.626
			c0.078-0.904,0.329-1.768,0.753-2.594c0.402-0.758,0.904-1.417,1.506-1.974c0.603-0.558,1.271-0.998,2.008-1.322
			c0.736-0.323,1.528-0.519,2.376-0.585c0.848-0.067,1.707,0.011,2.577,0.234c0.845,0.201,1.612,0.519,2.299,0.954
			c0.688,0.435,1.281,0.959,1.78,1.573c0.499,0.614,0.882,1.3,1.148,2.058c0.266,0.759,0.399,1.551,0.399,2.376h-5.626
			c0-0.513-0.162-0.87-0.485-1.071c-0.324-0.201-0.608-0.334-0.853-0.401c-0.045,0-0.151-0.017-0.318-0.05
			c-0.167-0.034-0.357-0.034-0.569,0c-0.212,0.033-0.43,0.112-0.652,0.234c-0.223,0.123-0.401,0.318-0.535,0.586
			c-0.179,0.357-0.212,0.731-0.101,1.121c0.111,0.391,0.334,0.697,0.669,0.92c0.312,0.179,0.658,0.34,1.037,0.485
			c0.379,0.146,0.781,0.284,1.205,0.418c0.379,0.112,0.764,0.234,1.153,0.368c0.39,0.134,0.784,0.291,1.184,0.469
			c1.463,0.669,2.611,1.651,3.443,2.945c0.832,1.294,1.248,2.733,1.248,4.316c0,1.562-0.416,2.99-1.248,4.283
			c-0.832,1.294-1.979,2.275-3.443,2.945c-0.577,0.268-1.166,0.462-1.769,0.585C45.441,26.824,44.839,26.885,44.237,26.885z"/>
		<path fill="#B6252C" d="M72.379,12.195c0,1.405-0.263,2.727-0.787,3.965c-0.524,1.238-1.25,2.326-2.175,3.263
			c-0.926,0.937-2.003,1.679-3.229,2.225c-1.227,0.547-2.543,0.831-3.949,0.854v3.915h-5.655V1.855h5.655
			c1.406,0.022,2.722,0.313,3.949,0.87c1.227,0.558,2.303,1.305,3.229,2.242c0.925,0.937,1.65,2.024,2.175,3.263
			C72.116,9.468,72.379,10.79,72.379,12.195z M62.239,16.846c0.625-0.022,1.21-0.162,1.757-0.42
			c0.546-0.257,1.021-0.593,1.422-1.007c0.401-0.415,0.719-0.901,0.954-1.461c0.234-0.56,0.352-1.153,0.352-1.78
			c0-0.626-0.117-1.22-0.352-1.78s-0.552-1.047-0.954-1.461s-0.876-0.75-1.422-1.008c-0.547-0.257-1.132-0.397-1.757-0.42V16.846z"
			/>
		<path fill="#B6252C" d="M92.791,7.51H82.685v3.715h8.198v5.655h-8.198v3.882h10.105v5.655H77.03V1.888l15.761-0.033V7.51z"/>
		<path fill="#B6252C" d="M107.982,26.383c-1.584,0-3.129-0.296-4.634-0.887c-1.506-0.591-2.861-1.489-4.066-2.694
			c-1.16-1.182-2.047-2.515-2.66-3.999c-0.614-1.483-0.92-3.05-0.92-4.702c0-1.673,0.306-3.251,0.92-4.735
			c0.613-1.483,1.5-2.805,2.66-3.965c1.205-1.205,2.565-2.108,4.083-2.71c1.517-0.603,3.062-0.903,4.634-0.903
			s3.112,0.301,4.618,0.903c1.506,0.602,2.861,1.506,4.066,2.71l-3.982,3.982c-0.647-0.646-1.383-1.132-2.208-1.456
			c-0.826-0.323-1.662-0.485-2.51-0.485c-0.848,0-1.679,0.162-2.493,0.485c-0.815,0.324-1.545,0.809-2.192,1.456
			c-0.625,0.647-1.104,1.372-1.439,2.175s-0.502,1.651-0.502,2.543c0,0.893,0.167,1.735,0.502,2.526
			c0.334,0.792,0.814,1.512,1.439,2.159c0.646,0.647,1.377,1.132,2.192,1.456c0.814,0.323,1.645,0.485,2.493,0.485
			c0.848,0,1.684-0.162,2.51-0.485c0.825-0.323,1.562-0.809,2.208-1.456l3.982,4.015c-1.205,1.205-2.555,2.104-4.049,2.694
			S109.589,26.383,107.982,26.383z"/>
		<path fill="#B6252C" d="M134.117,1.754V7.41h-4.718v19.007h-5.655V7.41h-4.685V1.754H134.117z"/>
		<path fill="#B6252C" d="M143.854,26.417H138.2V1.821h5.655V26.417z"/>
		<path fill="#B6252C" d="M159.465,1.821c1.693,0,3.286,0.324,4.778,0.97c1.493,0.647,2.796,1.523,3.91,2.627
			c1.114,1.104,1.994,2.404,2.641,3.898c0.646,1.495,0.969,3.09,0.969,4.785c0,1.696-0.323,3.291-0.969,4.785
			c-0.646,1.495-1.526,2.794-2.641,3.898c-1.113,1.104-2.417,1.98-3.91,2.627c-1.493,0.647-3.085,0.971-4.778,0.971
			s-3.286-0.323-4.779-0.971c-1.493-0.646-2.791-1.522-3.894-2.627c-1.103-1.104-1.977-2.403-2.623-3.898
			c-0.646-1.494-0.969-3.089-0.969-4.785c0-1.695,0.323-3.29,0.969-4.785c0.646-1.494,1.521-2.794,2.623-3.898
			c1.103-1.104,2.401-1.979,3.894-2.627C156.179,2.145,157.772,1.821,159.465,1.821z M159.481,20.728
			c0.915,0,1.773-0.173,2.577-0.52c0.803-0.345,1.506-0.819,2.108-1.421c0.602-0.603,1.076-1.305,1.422-2.108
			c0.346-0.803,0.52-1.662,0.52-2.577c0-0.915-0.174-1.773-0.52-2.577c-0.346-0.803-0.82-1.506-1.422-2.108
			c-0.603-0.603-1.305-1.076-2.108-1.422c-0.803-0.346-1.662-0.519-2.577-0.519c-0.915,0-1.773,0.173-2.577,0.519
			c-0.803,0.346-1.506,0.82-2.108,1.422c-0.603,0.602-1.077,1.305-1.422,2.108c-0.346,0.803-0.519,1.662-0.519,2.577
			c0,0.915,0.172,1.773,0.519,2.577c0.346,0.803,0.82,1.506,1.422,2.108c0.602,0.602,1.305,1.077,2.108,1.421
			C157.708,20.555,158.566,20.728,159.481,20.728z"/>
		<path fill="#B6252C" d="M189.296,1.855h5.655v24.562h-6.124l-8.031-14.322v14.322h-5.655V1.922h6.157l7.998,14.289V1.855z"/>
	</g>
	<g>
		<path fill="#221F1F" d="M210.433,26.885c-0.781,0-1.556-0.106-2.325-0.318s-1.501-0.54-2.192-0.987
			c-1.204-0.78-2.142-1.79-2.811-3.028s-1.004-2.593-1.004-4.065h5.655c0,0.669,0.145,1.188,0.435,1.557
			c0.29,0.368,0.547,0.618,0.771,0.752c0.401,0.268,0.836,0.413,1.305,0.436s0.926-0.067,1.372-0.268
			c0.312-0.134,0.563-0.302,0.753-0.502c0.189-0.201,0.334-0.396,0.435-0.586s0.162-0.373,0.185-0.552
			c0.021-0.178,0.033-0.323,0.033-0.435c0-0.111-0.012-0.256-0.033-0.435c-0.022-0.178-0.084-0.368-0.185-0.569
			c-0.101-0.201-0.245-0.396-0.435-0.585c-0.19-0.189-0.441-0.362-0.753-0.519c-0.246-0.111-0.508-0.212-0.786-0.301
			c-0.279-0.089-0.575-0.189-0.887-0.301c-0.559-0.178-1.138-0.379-1.74-0.602c-0.603-0.223-1.205-0.524-1.808-0.904
			c-0.781-0.49-1.438-1.104-1.974-1.84c-0.536-0.736-0.921-1.528-1.155-2.376c-0.233-0.848-0.313-1.723-0.233-2.626
			c0.077-0.904,0.328-1.768,0.753-2.594c0.401-0.758,0.903-1.417,1.506-1.974c0.602-0.558,1.271-0.998,2.008-1.322
			c0.735-0.323,1.527-0.519,2.375-0.585s1.707,0.011,2.577,0.234c0.846,0.201,1.612,0.519,2.3,0.954
			c0.688,0.435,1.28,0.959,1.779,1.573c0.499,0.614,0.882,1.3,1.147,2.058c0.267,0.759,0.399,1.551,0.399,2.376h-5.626
			c0-0.513-0.162-0.87-0.485-1.071s-0.608-0.334-0.854-0.401c-0.045,0-0.15-0.017-0.317-0.05c-0.168-0.034-0.357-0.034-0.569,0
			c-0.212,0.033-0.43,0.112-0.652,0.234c-0.224,0.123-0.401,0.318-0.535,0.586c-0.179,0.357-0.213,0.731-0.101,1.121
			c0.111,0.391,0.335,0.697,0.669,0.92c0.313,0.179,0.658,0.34,1.038,0.485c0.379,0.146,0.78,0.284,1.204,0.418
			c0.379,0.112,0.764,0.234,1.153,0.368c0.39,0.134,0.784,0.291,1.184,0.469c1.463,0.669,2.611,1.651,3.442,2.945
			c0.832,1.294,1.248,2.733,1.248,4.316c0,1.562-0.416,2.99-1.248,4.283c-0.831,1.294-1.979,2.275-3.442,2.945
			c-0.577,0.268-1.166,0.462-1.769,0.585S211.036,26.885,210.433,26.885z"/>
		<path fill="#221F1F" d="M226.596,26.417l2.844-6.96l-8.399-17.803h6.258l5.053,10.675l4.317-10.675h6.123l-10.072,24.763H226.596z
			"/>
		<path fill="#221F1F" d="M255.106,26.885c-0.781,0-1.556-0.106-2.325-0.318s-1.501-0.54-2.192-0.987
			c-1.204-0.78-2.142-1.79-2.811-3.028s-1.004-2.593-1.004-4.065h5.655c0,0.669,0.145,1.188,0.435,1.557
			c0.29,0.368,0.547,0.618,0.771,0.752c0.401,0.268,0.836,0.413,1.305,0.436s0.926-0.067,1.372-0.268
			c0.312-0.134,0.563-0.302,0.753-0.502c0.189-0.201,0.334-0.396,0.435-0.586s0.162-0.373,0.185-0.552
			c0.021-0.178,0.033-0.323,0.033-0.435c0-0.111-0.012-0.256-0.033-0.435c-0.022-0.178-0.084-0.368-0.185-0.569
			c-0.101-0.201-0.245-0.396-0.435-0.585c-0.19-0.189-0.441-0.362-0.753-0.519c-0.246-0.111-0.508-0.212-0.786-0.301
			c-0.279-0.089-0.575-0.189-0.887-0.301c-0.559-0.178-1.138-0.379-1.74-0.602c-0.603-0.223-1.205-0.524-1.808-0.904
			c-0.781-0.49-1.438-1.104-1.974-1.84c-0.536-0.736-0.921-1.528-1.155-2.376c-0.233-0.848-0.313-1.723-0.233-2.626
			c0.077-0.904,0.328-1.768,0.753-2.594c0.401-0.758,0.903-1.417,1.506-1.974c0.602-0.558,1.271-0.998,2.008-1.322
			c0.735-0.323,1.527-0.519,2.375-0.585s1.707,0.011,2.577,0.234c0.846,0.201,1.612,0.519,2.3,0.954
			c0.688,0.435,1.28,0.959,1.779,1.573c0.499,0.614,0.882,1.3,1.147,2.058c0.267,0.759,0.399,1.551,0.399,2.376h-5.626
			c0-0.513-0.162-0.87-0.485-1.071s-0.608-0.334-0.854-0.401c-0.045,0-0.15-0.017-0.317-0.05c-0.168-0.034-0.357-0.034-0.569,0
			c-0.212,0.033-0.43,0.112-0.652,0.234c-0.224,0.123-0.401,0.318-0.535,0.586c-0.179,0.357-0.213,0.731-0.101,1.121
			c0.111,0.391,0.335,0.697,0.669,0.92c0.313,0.179,0.658,0.34,1.038,0.485c0.379,0.146,0.78,0.284,1.204,0.418
			c0.379,0.112,0.764,0.234,1.153,0.368c0.39,0.134,0.784,0.291,1.184,0.469c1.463,0.669,2.611,1.651,3.442,2.945
			c0.832,1.294,1.248,2.733,1.248,4.316c0,1.562-0.416,2.99-1.248,4.283c-0.831,1.294-1.979,2.275-3.442,2.945
			c-0.577,0.268-1.166,0.462-1.769,0.585S255.708,26.885,255.106,26.885z"/>
		<path fill="#221F1F" d="M281.541,1.754V7.41h-4.718v19.007h-5.655V7.41h-4.685V1.754H281.541z"/>
		<path fill="#221F1F" d="M301.016,7.51H290.91v3.715h8.198v5.655h-8.198v3.882h10.106v5.655h-15.762V1.888l15.762-0.033V7.51z"/>
		<path fill="#221F1F" d="M321.998,1.821h5.822l1.438,24.595h-5.655l-0.602-10.039l-3.414,10.039h-5.654l-3.614-10.44l-0.67,10.44
			h-5.688l1.573-24.595h5.822l5.388,15.393L321.998,1.821z"/>
	</g>
</g>
</svg>
