<?xml version="1.0" encoding="utf-8"?>
<!-- Generator: Adobe Illustrator 16.0.0, SVG Export Plug-In . SVG Version: 6.00 Build 0)  -->
<!DOCTYPE svg PUBLIC "-//W3C//DTD SVG 1.1//EN" "http://www.w3.org/Graphics/SVG/1.1/DTD/svg11.dtd">
<svg version="1.1" id="Layer_1" xmlns="http://www.w3.org/2000/svg" xmlns:xlink="http://www.w3.org/1999/xlink" x="0px" y="0px"
	 width="200px" height="40px" viewBox="0 0 200 40" enable-background="new 0 0 200 40" xml:space="preserve">
<g>
	<g>
		<path fill="#2C1417" d="M172.208,0.155c0,4.237,0.013,8.474-0.008,12.711c-0.002,0.536,0.172,0.661,0.678,0.66
			c7.793-0.014,15.583-0.014,23.376,0.001c0.487,0.001,0.676-0.115,0.642-0.629c-0.044-0.661-0.012-1.327-0.012-1.992
			c0-0.909-0.028-0.952-0.945-1.277c1.103-0.919,2.164-1.803,3.299-2.75c0.025,0.2,0.058,0.325,0.058,0.452
			c0.002,2.997-0.012,5.996,0.012,8.994c0.007,0.532-0.163,0.645-0.667,0.644c-8.563-0.015-17.128-0.008-25.692-0.019
			c-0.495,0-0.737,0.033-0.771,0.668c-0.101,1.856-1.641,3.179-3.507,3.231c-1.814,0.051-3.217-0.578-4.044-2.244
			c-0.187-0.376-0.309-0.803-0.37-1.219c-0.048-0.312-0.126-0.434-0.453-0.434c-5.172,0.007-10.343,0.007-15.512,0.001
			c-0.3-0.001-0.422,0.099-0.414,0.403c0.015,0.508,0.013,1.01,0.626,1.372c-0.939,0.573-1.803,1.101-2.748,1.678
			c-0.018-0.274-0.038-0.427-0.038-0.579c-0.002-1.777,0-3.555,0-5.332c0-0.764,0-0.764,0.737-0.764c4.848,0,9.695,0,14.543,0
			c0.195,0,0.394,0,0.631,0c0.158-0.605,0.146-1.167-0.161-1.711c-0.188-0.332-0.494-0.369-0.831-0.368
			c-1.921,0.004-3.843,0.001-5.763,0.001c-2.819,0-5.637,0-8.456,0c-0.7,0-0.7-0.001-0.7-0.722c0-0.664-0.002-1.329,0-1.993
			c0-0.844-0.084-0.965-0.911-1.244c1.073-0.839,2.118-1.655,3.268-2.554c0,1.185,0,2.252,0,3.318c0,0.738,0,0.738,0.715,0.737
			c4.221,0,8.44,0.043,12.658-0.022c1.555-0.023,2.941,1.385,2.794,2.81c-0.046,0.456-0.009,0.921-0.009,1.471
			c0.857-0.447,1.639-0.852,2.508-1.304c0.019,0.27,0.04,0.455,0.042,0.641c0.01,1.364-0.029,2.729,0.032,4.092
			c0.058,1.256,1.362,1.852,2.399,1.139c0.448-0.307,0.636-0.76,0.636-1.288c0.004-4.075,0.016-8.15-0.02-12.226
			c-0.005-0.332-0.313-0.682-0.532-0.983c-0.128-0.174-0.367-0.267-0.615-0.436c0.697-0.604,1.363-1.169,2.017-1.746
			c0.438-0.388,0.863-0.791,1.294-1.188C172.064,0.155,172.137,0.155,172.208,0.155z"/>
		<path fill="#2C1417" d="M45.618,12.007c0.564-0.856,1.442-1.084,2.38-1.329c3.329-0.87,6.581-1.992,9.606-3.648
			c1.874-1.024,3.651-2.224,5.472-3.344c0.114-0.07,0.232-0.132,0.463-0.262c-0.297,0.902-0.816,1.505-1.372,2.065
			c-1.621,1.634-3.585,2.774-5.615,3.803c-2.23,1.128-4.562,2.001-6.954,2.724c-0.422,0.128-0.834,0.402-1.161,0.706
			c-0.315,0.294-0.158,0.626,0.278,0.704c0.262,0.048,0.531,0.087,0.797,0.088c8.114,0.004,16.229,0.005,24.342-0.002
			c0.424-0.001,0.848-0.073,1.453-0.129c-0.359-0.473-0.638-0.846-0.923-1.214c-0.251-0.325-0.506-0.648-0.765-0.968
			c-0.564-0.692-0.592-1.444-0.187-2.202c0.994-1.856,2.562-2.396,4.296-1.589c0.45,0.21,0.828,0.624,1.17,1.007
			c1.41,1.576,2.786,3.182,4.195,4.759c0.157,0.175,0.448,0.324,0.679,0.327c2.944,0.021,5.888,0.01,8.832,0.019
			c0.348,0.001,0.489-0.118,0.474-0.47c-0.02-0.466,0.014-0.935-0.016-1.398c-0.033-0.51-0.103-1.021-0.864-1.093
			c1.15-1.048,2.212-2.016,3.358-3.06c0.02,0.274,0.041,0.426,0.041,0.577c0.002,2.764-0.011,5.529,0.012,8.293
			c0.004,0.488-0.155,0.599-0.617,0.597c-3.967-0.018-7.935-0.015-11.901-0.001c-0.36,0.001-0.608-0.106-0.829-0.375
			c-1.604-1.952-3.209-3.904-4.828-5.845c-0.284-0.342-0.614-0.649-0.953-0.938c-0.314-0.269-0.676-0.266-0.959,0.052
			c-0.278,0.311-0.013,0.574,0.168,0.801c1.367,1.705,2.745,3.401,4.116,5.103c0.287,0.356,0.559,0.725,0.92,1.194
			c-0.316,0-0.504,0-0.692,0c-10.376,0-20.752-0.004-31.128,0.007c-0.839,0.001-1.472-0.315-1.857-1.038
			c-0.401-0.754-0.732-1.543-1.104-2.313c-0.09-0.187-0.217-0.354-0.327-0.53C45.618,12.725,45.618,12.365,45.618,12.007z"/>
		<path fill="#2C1417" d="M125.45,39.695c-2.026-2.533-4.052-5.066-6.078-7.6c-0.044,0.021-0.086,0.041-0.13,0.062
			c-0.015,0.132-0.04,0.264-0.04,0.396c-0.004,1.598-0.034,3.196,0.01,4.793c0.024,0.921,0.074,1.484,1.139,1.614
			c0.078,0.01,0.17,0.155,0.198,0.255c0.01,0.038-0.138,0.176-0.214,0.177c-0.934,0.012-1.866,0.011-2.8-0.007
			c-0.081-0.002-0.157-0.143-0.237-0.22c0.086-0.072,0.164-0.188,0.26-0.212c0.875-0.201,1.017-0.363,1.017-1.262
			c0.002-1.938-0.048-3.88,0.024-5.816c0.032-0.814-0.374-1.253-0.907-1.698c-0.13-0.108-0.208-0.283-0.31-0.426
			c0.172-0.057,0.342-0.157,0.514-0.163c0.663-0.019,1.33-0.042,1.992,0.011c0.262,0.02,0.587,0.163,0.751,0.361
			c1.427,1.729,2.823,3.48,4.226,5.229c0.055,0.066,0.089,0.151,0.185,0.321c0.069-0.205,0.105-0.265,0.105-0.323
			c0.002-1.329,0.01-2.658-0.006-3.986c-0.008-0.739-0.182-0.912-0.897-1.117c-0.142-0.04-0.243-0.214-0.365-0.327
			c0.032-0.047,0.062-0.093,0.094-0.138c0.976,0,1.95,0,3.115,0c-0.196,0.228-0.28,0.42-0.416,0.469
			c-0.715,0.256-0.801,0.352-0.801,1.121c0,2.622,0.002,5.244-0.004,7.865c-0.002,0.206-0.066,0.414-0.101,0.621
			C125.666,39.695,125.558,39.695,125.45,39.695z"/>
		<path fill="#2C1417" d="M60.054,39.695c-0.288-0.075-0.581-0.132-0.862-0.229c-1.36-0.465-2.145-1.558-2.151-3.001
			c-0.006-1.704-0.001-3.41-0.001-5.113c0-0.93-0.024-0.956-0.918-1.293c-0.1-0.037-0.17-0.151-0.253-0.229
			c0.1-0.079,0.198-0.227,0.299-0.228c1.399-0.016,2.798-0.016,4.198-0.003c0.086,0.001,0.169,0.135,0.254,0.207
			c-0.075,0.08-0.137,0.204-0.229,0.234c-1.05,0.338-1.09,0.384-1.091,1.475c-0.002,1.578-0.01,3.157,0.006,4.736
			c0.004,0.408,0.05,0.823,0.142,1.22c0.204,0.879,0.871,1.438,1.688,1.471c1.161,0.047,2.079-0.466,2.36-1.373
			c0.13-0.419,0.219-0.869,0.226-1.307c0.026-1.667,0.013-3.337,0.009-5.005c-0.002-0.773-0.182-0.975-0.956-1.174
			c-0.128-0.034-0.229-0.169-0.344-0.258c0.133-0.078,0.264-0.221,0.399-0.225c0.771-0.022,1.543-0.02,2.314-0.002
			c0.132,0.003,0.261,0.114,0.391,0.177c-0.11,0.108-0.204,0.284-0.333,0.315c-0.574,0.135-0.76,0.481-0.751,1.051
			c0.023,1.579,0.026,3.158-0.002,4.737c-0.008,0.511-0.083,1.036-0.224,1.528c-0.363,1.264-1.178,2.05-2.53,2.201
			c-0.046,0.005-0.087,0.056-0.131,0.086C61.06,39.695,60.557,39.695,60.054,39.695z"/>
		<path fill="#2C1417" d="M111.337,39.695c-0.237-0.061-0.479-0.111-0.711-0.185c-1.488-0.459-2.22-1.48-2.233-3.146
			c-0.011-1.525,0.002-3.053-0.005-4.578c-0.002-0.285-0.056-0.571-0.052-0.856c0.01-0.508-0.262-0.735-0.725-0.841
			c-0.135-0.03-0.242-0.184-0.362-0.28c0.132-0.076,0.266-0.215,0.399-0.217c1.293-0.018,2.586-0.019,3.879,0
			c0.149,0.002,0.298,0.152,0.447,0.234c-0.134,0.087-0.258,0.223-0.401,0.25c-0.729,0.132-0.909,0.277-0.917,1.005
			c-0.019,1.849-0.04,3.698,0.012,5.546c0.026,0.973,0.262,1.885,1.393,2.235c1.105,0.343,2.506-0.321,2.81-1.431
			c0.142-0.511,0.218-1.055,0.229-1.585c0.03-1.436,0.01-2.872,0.01-4.309c-0.002-0.989-0.138-1.157-1.104-1.469
			c-0.11-0.035-0.188-0.172-0.281-0.262c0.104-0.075,0.205-0.213,0.312-0.215c0.825-0.019,1.65-0.019,2.478-0.002
			c0.104,0.002,0.208,0.13,0.312,0.199c-0.076,0.102-0.13,0.252-0.229,0.296c-0.794,0.346-0.842,0.405-0.844,1.268
			c-0.002,1.688,0.011,3.375-0.004,5.063c-0.014,1.461-0.869,2.682-2.142,3.097c-0.214,0.07-0.436,0.122-0.653,0.182
			C112.414,39.695,111.875,39.695,111.337,39.695z"/>
		<path fill="#2C1417" d="M199.895,29.999c-0.617,0.113-0.965,0.53-1.263,1.051c-0.718,1.258-1.469,2.498-2.208,3.746
			c-0.026,0.046-0.078,0.087-0.086,0.134c-0.152,1.203-0.271,2.416,0.098,3.594c0.063,0.197,0.481,0.28,0.733,0.421
			c0.12,0.067,0.234,0.146,0.35,0.217c-0.122,0.091-0.243,0.258-0.365,0.26c-1.383,0.019-2.764,0.019-4.146,0
			c-0.134-0.002-0.266-0.155-0.399-0.238c0.132-0.08,0.258-0.206,0.399-0.232c0.621-0.117,0.806-0.382,0.873-1.018
			c0.174-1.63-0.189-3.091-1.106-4.46c-0.556-0.828-0.943-1.766-1.467-2.616c-0.189-0.309-0.562-0.505-0.841-0.763
			c-0.101-0.094-0.172-0.22-0.256-0.331c0.109-0.062,0.222-0.177,0.331-0.178c1.365-0.012,2.728-0.014,4.093,0.002
			c0.124,0.001,0.247,0.138,0.371,0.21c-0.122,0.097-0.235,0.205-0.365,0.288c-0.052,0.033-0.14,0.011-0.212,0.016
			c-0.52,0.039-0.682,0.279-0.449,0.73c0.595,1.158,1.208,2.306,1.81,3.449c0.066-0.009,0.118-0.001,0.128-0.019
			c0.611-1.046,1.257-2.076,1.814-3.15c0.34-0.655,0.124-0.919-0.627-1.025c-0.146-0.021-0.274-0.19-0.41-0.292
			c0.142-0.072,0.284-0.209,0.426-0.207c0.925,0.014,1.851,0.057,2.775,0.088C199.895,29.783,199.895,29.891,199.895,29.999z"/>
		<path fill="#2C1417" d="M137.625,39.695c-0.64-0.2-1.321-0.32-1.91-0.617c-1.627-0.822-2.414-2.212-2.506-4.018
			c-0.09-1.708,0.306-3.226,1.635-4.409c1.4-1.249,3.015-1.433,4.761-0.991c0.258,0.065,0.522,0.139,0.758,0.259
			c0.447,0.229,0.806,0.271,1.051-0.273c0.04-0.092,0.246-0.176,0.348-0.151c0.078,0.02,0.16,0.213,0.162,0.33
			c0.014,0.861,0.016,1.724,0,2.584c-0.004,0.148-0.112,0.295-0.172,0.443c-0.132-0.104-0.29-0.187-0.39-0.314
			c-0.485-0.632-0.871-1.372-1.453-1.897c-1.38-1.249-3.23-0.715-3.78,1.051c-0.541,1.738-0.591,3.522-0.078,5.263
			c0.678,2.299,2.748,2.426,4.469,1.301c0.325-0.214,0.625-0.486,0.883-0.78c0.312-0.355,0.52-0.288,0.753,0.102
			c-0.879,0.992-1.782,1.918-3.213,2.035c-0.046,0.004-0.088,0.055-0.132,0.085C138.414,39.695,138.019,39.695,137.625,39.695z"/>
		<path fill="#2C1417" d="M128.56,5.134c0,0.196,0,0.369,0,0.543c0,2.423,0.01,4.846-0.008,7.27
			c-0.005,0.443,0.123,0.582,0.575,0.58c3.645-0.017,7.289-0.019,10.932,0.001c0.491,0.003,0.621-0.161,0.594-0.62
			c-0.036-0.555,0.016-1.114-0.019-1.669c-0.025-0.448-0.126-0.894-0.214-1.482c0.588-0.52,1.299-1.147,2.106-1.86
			c0.021,0.294,0.042,0.443,0.042,0.593c0.002,2.604-0.01,5.206,0.012,7.81c0.004,0.506-0.122,0.674-0.655,0.671
			c-4.308-0.021-8.616-0.007-12.924-0.021c-0.386-0.001-0.621,0.125-0.852,0.42c-0.623,0.804-1.278,1.582-2.018,2.488
			c0-1.025,0-1.92,0-2.88c-2.556,0-5.04,0-7.663,0c0.216-0.752,0.361-1.422,0.6-2.057c0.562-1.505,1.291-2.908,2.649-3.872
			c0.058-0.041,0.118-0.093,0.149-0.152c1.18-2.319,3.235-3.722,5.325-5.087c0.372-0.243,0.768-0.451,1.155-0.672
			C128.373,5.121,128.417,5.134,128.56,5.134z M122.979,13.375c0.102,0.084,0.128,0.125,0.156,0.126
			c0.627,0.008,1.257,0.02,1.884,0.015c1.269-0.01,1.067,0.151,1.079-1.085c0.01-0.957,0.002-1.913,0.002-3.019
			c-0.777,0.677-1.438,1.248-1.832,2.049c-0.22,0.445-0.418,0.876-0.827,1.202C123.229,12.832,123.124,13.142,122.979,13.375z"/>
		<path fill="#2C1417" d="M100.152,16.957c-0.021,0.691-0.195,1.327,0.545,1.775c-0.912,0.555-1.762,1.072-2.681,1.631
			c0-2.248,0-4.404,0-6.632c0.221,0,0.429,0,0.639,0c4.865,0,9.73-0.007,14.597,0.013c0.531,0.003,0.723-0.111,0.699-0.676
			c-0.048-1.124-0.316-1.422-1.445-1.422c-4.633,0-9.265-0.005-13.897,0.012c-0.482,0.002-0.674-0.105-0.641-0.623
			c0.045-0.715,0.024-1.436,0.008-2.153C97.959,8.15,97.8,7.952,97.01,7.718c1.099-0.865,2.134-1.68,3.293-2.594
			c0,0.492,0,0.842,0,1.191c0,0.772,0.027,1.546-0.01,2.315c-0.023,0.466,0.146,0.579,0.585,0.578
			c4.22-0.014,8.439,0.03,12.657-0.03c1.467-0.021,2.928,0.959,2.943,2.836c0.012,1.49-0.01,2.98,0.01,4.471
			c0.006,0.444-0.214,0.479-0.569,0.478c-5.027-0.008-10.053-0.006-15.08-0.006C100.627,16.957,100.416,16.957,100.152,16.957z"/>
		<path fill="#2C1417" d="M100.375,36.248c0.666-1.613,1.291-3.128,1.915-4.644c0.232-0.562,0.443-1.131,0.707-1.678
			c0.073-0.153,0.296-0.329,0.455-0.334c1.057-0.029,2.113-0.016,3.198-0.016c0.088,0.296,0.118,0.473-0.273,0.53
			c-0.713,0.104-0.865,0.296-0.869,1.034c-0.01,2.19-0.01,4.381-0.004,6.571c0.002,0.938,0.206,1.154,1.159,1.269
			c0.094,0.287,0.062,0.457-0.318,0.453c-1.311-0.011-2.621,0.004-3.931-0.017c-0.146-0.002-0.291-0.163-0.437-0.25
			c0.136-0.075,0.264-0.197,0.407-0.219c0.544-0.076,0.862-0.383,0.866-0.914c0.019-2.273,0.009-4.548-0.114-6.858
			c-0.282,0.679-0.567,1.354-0.846,2.034c-0.781,1.919-1.553,3.841-2.343,5.755c-0.073,0.175-0.244,0.31-0.369,0.462
			c-0.144-0.158-0.344-0.293-0.423-0.479c-0.942-2.219-1.866-4.444-2.795-6.667c-0.103-0.246-0.215-0.488-0.379-0.858
			c-0.038,0.236-0.068,0.344-0.068,0.449c-0.004,1.903,0.003,3.807-0.006,5.709c-0.003,0.731,0.161,1.296,1.133,1.374
			c0.098,0.009,0.185,0.158,0.276,0.242c-0.104,0.077-0.206,0.218-0.311,0.22c-0.915,0.02-1.832,0.025-2.746-0.002
			c-0.11-0.003-0.215-0.222-0.379-0.403c1.196-0.157,1.313-0.294,1.314-1.353c0-2.174,0-4.346,0-6.518
			c0-0.772-0.104-0.885-0.84-1.054c-0.133-0.03-0.237-0.188-0.354-0.287c0.134-0.073,0.267-0.211,0.403-0.214
			c0.861-0.02,1.725,0.021,2.584-0.021c0.458-0.022,0.666,0.148,0.829,0.556c0.792,1.971,1.612,3.93,2.423,5.895
			C100.256,36.061,100.286,36.1,100.375,36.248z"/>
		<path fill="#2C1417" d="M72.157,34.117c0.321,0.124,0.573,0.206,0.813,0.314c0.936,0.43,1.49,1.103,1.528,2.189
			c0.041,1.158-0.563,1.893-1.529,2.292c-0.71,0.292-1.507,0.461-2.276,0.505c-1.396,0.079-2.799,0.031-4.199,0.011
			c-0.168-0.002-0.334-0.157-0.503-0.242c0.147-0.083,0.285-0.206,0.442-0.24c0.545-0.121,0.806-0.487,0.809-0.998
			c0.018-2.297,0.02-4.595-0.001-6.893c-0.005-0.623-0.266-0.83-0.928-0.974c-0.12-0.026-0.215-0.174-0.321-0.266
			c0.115-0.08,0.23-0.231,0.344-0.23c1.79,0.024,3.585,0,5.368,0.144c0.626,0.05,1.336,0.395,1.801,0.828
			c0.925,0.863,0.688,2.367-0.373,3.068C72.856,33.809,72.539,33.928,72.157,34.117z M69.53,34.561c0,1.192-0.029,2.353,0.022,3.511
			c0.011,0.257,0.25,0.653,0.469,0.722c0.543,0.171,1.105,0.05,1.521-0.396C72.1,37.8,72.19,36.32,71.746,35.45
			C71.376,34.725,70.673,34.432,69.53,34.561z M69.533,33.994c0.699-0.098,1.413-0.021,1.81-0.669
			c0.463-0.753,0.454-2.074-0.114-2.777c-0.218-0.271-0.738-0.364-1.131-0.393c-0.174-0.014-0.53,0.326-0.539,0.519
			C69.506,31.756,69.533,32.842,69.533,33.994z"/>
		<path fill="#2C1417" d="M48.387,39.408c-0.736,0-1.472,0.011-2.208-0.009c-0.145-0.003-0.287-0.124-0.432-0.19
			c0.125-0.089,0.239-0.233,0.375-0.258c0.532-0.096,0.783-0.421,0.785-0.928c0.009-2.352,0.009-4.702,0-7.055
			c-0.002-0.49-0.261-0.787-0.766-0.878c-0.144-0.025-0.266-0.173-0.397-0.264c0.15-0.083,0.299-0.234,0.451-0.235
			c1.382-0.019,2.767-0.068,4.145,0.002c1.937,0.1,3.641,0.707,4.481,2.659c1.14,2.65,0.246,5.951-2.963,6.945
			c-0.502,0.156-1.055,0.174-1.587,0.203C49.645,39.435,49.016,39.408,48.387,39.408z M49.268,34.494
			c0,1.185-0.003,2.369,0.001,3.555c0.002,0.654,0.184,0.818,0.844,0.798c1.024-0.033,1.982-0.677,2.288-1.654
			c0.565-1.809,0.549-3.629-0.115-5.414c-0.257-0.692-0.729-1.219-1.454-1.488c-1.076-0.402-1.563-0.089-1.563,1.025
			C49.268,32.375,49.268,33.435,49.268,34.494z"/>
		<path fill="#2C1417" d="M151.953,35.027c0,1.071-0.014,2.038,0.004,3.006c0.013,0.563,0.286,0.818,0.855,0.917
			c0.124,0.022,0.231,0.142,0.348,0.215c-0.13,0.077-0.258,0.22-0.39,0.222c-1.291,0.018-2.583,0.017-3.876,0.002
			c-0.146-0.002-0.29-0.121-0.434-0.187c0.124-0.087,0.237-0.217,0.375-0.255c0.472-0.13,0.756-0.398,0.756-0.906
			c0.002-2.351,0.004-4.701,0-7.052c0-0.5-0.25-0.79-0.745-0.899c-0.145-0.032-0.262-0.177-0.394-0.27
			c0.153-0.08,0.306-0.227,0.461-0.229c1.453-0.018,2.907-0.041,4.36,0.005c0.615,0.02,1.24,0.154,1.838,0.321
			c0.969,0.271,1.477,0.985,1.561,1.962c0.08,0.948-0.138,1.812-0.953,2.427c-0.835,0.632-1.818,0.686-2.804,0.719
			C152.617,35.035,152.315,35.027,151.953,35.027z M152.003,34.505c0.218-0.024,0.39-0.045,0.563-0.062
			c1.065-0.099,1.403-0.338,1.583-1.391c0.096-0.546,0.058-1.144-0.054-1.69c-0.19-0.941-0.594-1.185-1.553-1.167
			c-0.434,0.009-0.605,0.175-0.598,0.612c0.018,1.091,0.004,2.182,0.008,3.272C151.953,34.214,151.983,34.349,152.003,34.505z"/>
		<path fill="#2C1417" d="M189.165,32.601c-0.294-1.488-0.964-2.542-2.742-2.392c0,0.181,0,0.354,0,0.527
			c0,2.281-0.002,4.561,0.002,6.841c0,0.213,0.046,0.424,0.068,0.637c0.056,0.532,0.388,0.713,0.881,0.74
			c0.166,0.011,0.324,0.136,0.485,0.207c-0.02,0.061-0.042,0.12-0.062,0.181c-1.658,0-3.317,0-4.976,0
			c-0.029-0.042-0.058-0.084-0.088-0.125c0.126-0.091,0.246-0.24,0.382-0.258c0.728-0.096,0.896-0.229,1.013-0.933
			c0.036-0.21,0.038-0.428,0.038-0.644c0.002-2.208,0.002-4.417,0.002-6.625c0-0.192,0-0.385,0-0.586
			c-1.2-0.031-2.084,0.354-2.503,1.49c-0.086,0.232-0.112,0.485-0.206,0.714c-0.034,0.085-0.178,0.125-0.271,0.186
			c-0.049-0.087-0.137-0.174-0.137-0.261c-0.01-0.79-0.002-1.579-0.002-2.37c0-0.396,0.282-0.342,0.532-0.342
			c2.208-0.001,4.415-0.001,6.623-0.001c1.339,0,1.339,0,1.339,1.319c0,0.412,0.017,0.826-0.008,1.237
			c-0.008,0.156-0.111,0.307-0.172,0.46C189.299,32.604,189.232,32.602,189.165,32.601z"/>
		<path fill="#2C1417" d="M166.242,29.577c1.505,0,3.009-0.004,4.514,0.01c0.098,0.001,0.191,0.145,0.288,0.222
			c-0.099,0.094-0.187,0.25-0.298,0.271c-0.922,0.16-1.045,0.287-1.047,1.217c-0.002,2.226-0.002,4.452,0,6.679
			c0.002,0.692,0.163,0.855,0.849,0.878c1.912,0.064,2.861-0.537,3.633-2.306c0.058-0.13,0.107-0.276,0.204-0.374
			c0.073-0.073,0.216-0.105,0.325-0.1c0.04,0.003,0.112,0.176,0.1,0.26c-0.151,0.951-0.306,1.902-0.493,2.847
			c-0.021,0.106-0.256,0.244-0.392,0.245c-2.458,0.015-4.917,0.015-7.377-0.003c-0.144-0.001-0.286-0.179-0.394-0.326
			c1.154-0.34,1.213-0.414,1.213-1.557c0-2.101,0-4.2-0.002-6.3c0-0.818-0.122-0.948-0.934-1.164
			c-0.122-0.032-0.197-0.242-0.296-0.37C166.172,29.662,166.206,29.62,166.242,29.577z"/>
		<path fill="#2C1417" d="M77.318,36.609c-0.15,0.456-0.312,0.927-0.461,1.402c-0.192,0.612-0.023,0.853,0.606,0.94
			c0.159,0.023,0.303,0.152,0.454,0.233c-0.155,0.079-0.307,0.221-0.464,0.226c-0.699,0.025-1.4,0.021-2.099,0.003
			c-0.134-0.004-0.265-0.121-0.397-0.185c0.095-0.104,0.196-0.204,0.284-0.314c0.293-0.368,0.683-0.699,0.856-1.117
			c1.039-2.524,2.021-5.073,3.042-7.605c0.113-0.28,0.089-0.807,0.543-0.718c0.221,0.043,0.417,0.453,0.537,0.734
			c1.072,2.53,2.119,5.073,3.188,7.604c0.203,0.48,0.343,1.041,0.992,1.165c0.049,0.009,0.122,0.226,0.091,0.259
			c-0.083,0.088-0.215,0.177-0.33,0.179c-0.789,0.014-1.58,0.006-2.369,0.006c-0.485-0.001-0.971,0.022-1.453-0.013
			c-0.139-0.01-0.266-0.184-0.358-0.337c1.22-0.256,1.241-0.292,0.862-1.426c-0.36-1.082-0.36-1.083-1.506-1.082
			c-0.628,0.001-1.256,0.005-1.884,0.01C77.418,36.574,77.384,36.592,77.318,36.609z M80.169,35.897
			c-0.438-1.072-0.852-2.083-1.265-3.094c-0.043,0.004-0.087,0.007-0.13,0.011c-0.393,1.014-0.786,2.029-1.195,3.083
			C78.457,35.897,79.266,35.897,80.169,35.897z"/>
		<path fill="#2C1417" d="M163.318,39.418c-0.645,0.001-1.29,0.014-1.936-0.011c-0.128-0.005-0.248-0.16-0.372-0.245
			c0.118-0.071,0.229-0.195,0.354-0.209c0.722-0.072,0.892-0.329,0.649-1.024c-0.006-0.018-0.014-0.033-0.02-0.05
			c-0.489-1.314-0.489-1.314-1.889-1.314c-0.306,0-0.609,0-0.915,0c-0.841,0-0.841-0.001-1.091,0.808
			c-0.07,0.221-0.132,0.443-0.2,0.664c-0.182,0.576-0.016,0.821,0.568,0.916c0.169,0.027,0.319,0.163,0.478,0.25
			c-0.174,0.072-0.344,0.2-0.521,0.206c-0.662,0.025-1.327,0.02-1.99,0.001c-0.128-0.004-0.252-0.121-0.378-0.187
			c0.09-0.105,0.184-0.207,0.27-0.315c0.273-0.338,0.64-0.639,0.8-1.024c1.097-2.674,2.147-5.365,3.225-8.046
			c0.062-0.154,0.229-0.267,0.348-0.398c0.142,0.131,0.348,0.234,0.418,0.396c1.122,2.663,2.22,5.336,3.351,7.995
			c0.199,0.469,0.338,1.051,1.009,1.139c0.058,0.007,0.158,0.208,0.138,0.231c-0.077,0.092-0.195,0.206-0.304,0.209
			C164.646,39.428,163.982,39.418,163.318,39.418z M161.221,35.889c-0.439-1.075-0.854-2.089-1.269-3.104
			c-0.044,0.006-0.088,0.012-0.132,0.019c-0.386,1.017-0.77,2.032-1.167,3.085C159.561,35.889,160.355,35.889,161.221,35.889z"/>
		<path fill="#2C1417" d="M180.337,39.392c-0.194,0-0.388,0-0.581,0c-1.31,0.001-2.62,0.006-3.931-0.008
			c-0.126-0.001-0.25-0.116-0.374-0.18c0.07-0.084,0.126-0.221,0.214-0.245c1.067-0.306,1.069-0.302,1.069-1.411
			c0-2.082,0.002-4.164,0-6.246c-0.002-0.896-0.116-1.027-0.976-1.237c-0.117-0.028-0.205-0.183-0.308-0.278
			c0.11-0.068,0.218-0.192,0.326-0.193c1.418-0.014,2.837-0.015,4.254,0.001c0.12,0.002,0.237,0.145,0.355,0.221
			c-0.112,0.087-0.214,0.225-0.338,0.251c-0.811,0.177-0.979,0.356-0.98,1.19c-0.006,2.171-0.006,4.344-0.002,6.515
			c0.004,0.854,0.174,1.027,1.034,1.188c0.122,0.021,0.223,0.163,0.334,0.25C180.402,39.27,180.371,39.331,180.337,39.392z"/>
		<path fill="#2C1417" d="M142.964,39.182c0.128-0.078,0.248-0.206,0.384-0.227c0.697-0.102,0.957-0.374,0.959-1.094
			c0.002-2.225-0.008-4.449,0.006-6.674c0.004-0.624-0.275-1.097-0.936-1.124c-0.123-0.006-0.239-0.147-0.357-0.228
			c0.128-0.084,0.256-0.237,0.386-0.239c1.381-0.019,2.764-0.018,4.145,0c0.136,0.002,0.27,0.147,0.405,0.228
			c-0.136,0.084-0.262,0.217-0.407,0.244c-0.695,0.128-0.882,0.322-0.884,1.034c-0.004,2.262-0.004,4.522,0,6.782
			c0.002,0.776,0.178,0.956,0.951,1.069c0.12,0.02,0.224,0.157,0.336,0.239c-0.086,0.064-0.172,0.186-0.26,0.187
			c-1.539,0.012-3.079,0.008-4.62,0.008C143.036,39.319,143,39.25,142.964,39.182z"/>
		<path fill="#2C1417" d="M89.953,39.386c-1.539,0-3.078,0.003-4.616-0.008c-0.089-0.001-0.177-0.121-0.266-0.185
			c0.096-0.082,0.18-0.217,0.288-0.239c0.833-0.165,0.985-0.332,0.986-1.16c0.001-2.188,0.001-4.375,0-6.563
			c0-0.816-0.136-0.972-0.934-1.162c-0.127-0.031-0.229-0.167-0.342-0.255c0.121-0.076,0.24-0.217,0.362-0.219
			c1.416-0.016,2.833-0.015,4.249-0.001c0.106,0.002,0.212,0.129,0.317,0.197c-0.104,0.09-0.195,0.233-0.313,0.26
			c-0.876,0.201-0.98,0.318-0.981,1.228c-0.001,2.206-0.002,4.411,0,6.616c0.001,0.76,0.196,0.953,0.961,1.063
			c0.134,0.019,0.25,0.169,0.372,0.26C90.009,39.273,89.981,39.329,89.953,39.386z"/>
		<path fill="#2C1417" d="M129.898,39.386c-0.682,0-1.363,0.01-2.045-0.008c-0.128-0.004-0.251-0.114-0.377-0.177
			c0.124-0.085,0.239-0.227,0.373-0.246c0.592-0.083,0.844-0.339,0.844-0.952c0.004-2.331,0.004-4.661,0-6.992
			c0-0.63-0.162-0.793-0.789-0.933c-0.156-0.034-0.286-0.185-0.43-0.28c0.159-0.07,0.317-0.2,0.476-0.203
			c1.328-0.017,2.653-0.016,3.979-0.001c0.148,0.001,0.292,0.121,0.44,0.187c-0.137,0.101-0.26,0.261-0.412,0.291
			c-0.663,0.136-0.903,0.372-0.905,1.041c-0.006,2.276-0.006,4.553,0,6.83c0.002,0.628,0.308,0.928,0.936,1.012
			c0.136,0.02,0.256,0.158,0.382,0.242c-0.143,0.064-0.284,0.177-0.428,0.182C131.261,39.397,130.579,39.386,129.898,39.386z"/>
		<path fill="#2C1417" d="M185.899,18.796c0.68,0.006,1.081,0.425,1.065,1.111c-0.015,0.621-0.523,1.124-1.127,1.111
			c-0.594-0.015-1.033-0.53-1.023-1.198C184.826,19.162,185.221,18.79,185.899,18.796z"/>
		<path fill="#2C1417" d="M123.716,3.193c-0.665,0.006-1.067-0.393-1.065-1.058c0.002-0.626,0.464-1.102,1.069-1.103
			c0.602-0.001,1.069,0.479,1.071,1.1C124.795,2.792,124.394,3.188,123.716,3.193z"/>
		<path fill="#2C1417" d="M88.507,19.844c-0.006,0.679-0.409,1.096-1.045,1.082c-0.6-0.014-1.119-0.494-1.081-1.097
			c0.041-0.638,0.402-1.091,1.15-1.041C88.194,18.832,88.513,19.142,88.507,19.844z"/>
		<path fill="#2C1417" d="M127.248,3.203c-0.611-0.006-1.038-0.436-1.038-1.048c-0.003-0.616,0.471-1.118,1.057-1.125
			c0.609-0.007,1.095,0.504,1.089,1.143C128.348,2.807,127.916,3.209,127.248,3.203z"/>
		<path fill="#2C1417" d="M64.479,18.796c0.608,0.007,1.063,0.449,1.059,1.029c-0.004,0.588-0.509,1.093-1.095,1.096
			c-0.647,0.002-1.065-0.459-1.046-1.154C63.413,19.15,63.817,18.789,64.479,18.796z"/>
		<path fill="#2C1417" d="M137.795,18.796c0.619,0.007,1.022,0.427,1.011,1.051c-0.01,0.636-0.472,1.092-1.081,1.074
			c-0.596-0.021-1.075-0.527-1.061-1.122C136.678,19.184,137.123,18.788,137.795,18.796z"/>
		<path fill="#2C1417" d="M134.208,18.796c0.613,0.003,1.039,0.428,1.041,1.036c0,0.608-0.491,1.106-1.083,1.093
			c-0.615-0.015-1.067-0.486-1.063-1.109C133.107,19.18,133.526,18.792,134.208,18.796z"/>
		<path fill="#2C1417" d="M68.024,20.912c-0.618,0.01-1.065-0.441-1.073-1.078c-0.007-0.611,0.407-1.032,1.023-1.038
			c0.656-0.006,1.123,0.413,1.124,1.013C69.1,20.406,68.615,20.904,68.024,20.912z"/>
	</g>
	<g>
		<path fill="#732520" d="M19.418,39.839c-6.271,0-12.544,0-18.816,0c-0.493,0-0.493,0-0.493-0.478
			c0-10.427,0.002-20.853-0.003-31.278C0.104,6.888,0.161,5.695,0.629,4.588c1.03-2.438,2.779-3.997,5.49-4.321
			C6.68,0.199,7.242,0.163,7.807,0.163c4.754,0,9.508,0.002,14.263-0.008c0.31-0.001,0.426,0.061,0.408,0.396
			c-0.03,0.587,0.005,1.177-0.015,1.765c-0.009,0.254,0.073,0.306,0.314,0.305c2.33-0.009,4.66-0.006,6.99-0.006
			c2.883,0,5.766,0.005,8.649-0.007c0.295-0.001,0.365,0.08,0.365,0.369c-0.007,12.169-0.007,24.337,0.001,36.505
			c0,0.299-0.083,0.363-0.37,0.362C32.08,39.837,25.749,39.839,19.418,39.839z"/>
		<path fill="#FFFFFF" d="M5.63,34.414c-1.583,0-3.123,0.001-4.664-0.005c-0.107,0-0.273,0.091-0.315-0.109
			c-0.044-0.205,0.026-0.281,0.256-0.279c1.495,0.011,2.991-0.03,4.483,0.022c0.589,0.021,0.96-0.212,1.332-0.659
			c-0.539,0-1.039,0-1.54,0c-0.847,0-1.694-0.015-2.542,0.007c-0.307,0.009-0.362-0.095-0.361-0.377
			c0.009-4.661,0.005-9.321,0.01-13.982c0-0.236-0.032-0.388-0.275-0.523c-0.479-0.268-0.445-0.983,0.052-1.243
			c0.182-0.094,0.227-0.186,0.225-0.368c-0.002-0.175,0.029-0.351,0.059-0.524c0.198-1.134,0.863-1.688,2.022-1.688
			c0.989,0,1.978-0.012,2.966,0.007c0.276,0.006,0.334-0.086,0.372-0.343c0.541-3.782,1.908-7.187,4.661-9.921
			c1.902-1.888,4.23-2.959,6.868-3.38c0.732-0.116,1.47-0.163,2.209-0.209c0.287-0.019,0.413,0.03,0.393,0.367
			c-0.035,0.61,0.007,1.224-0.017,1.835c-0.012,0.287,0.082,0.343,0.351,0.342c5.178-0.008,10.357-0.003,15.535-0.014
			c0.337,0,0.444,0.056,0.444,0.428c-0.012,11.075-0.009,22.149-0.009,33.224c0,0.508-0.137,0.617-0.61,0.389
			c-0.515-0.25-0.99-0.303-1.505-0.015c-0.235,0.133-0.511,0.068-0.748-0.054c-0.705-0.361-1.395-0.346-2.083,0.044
			c-0.285,0.161-0.597,0.174-0.878,0.014c-0.48-0.274-0.95-0.227-1.413,0.004c-0.353,0.174-0.685,0.185-1.042,0.019
			c-0.565-0.263-1.131-0.281-1.682,0.06c-0.154,0.098-0.333,0.105-0.513,0.088c-0.417-0.036-0.417-0.035-0.664,0.327
			c0.461,0.256,0.916,0.319,1.4,0.037c0.415-0.243,0.865-0.221,1.288-0.023c0.458,0.214,0.889,0.228,1.346-0.002
			c0.41-0.205,0.827-0.201,1.244,0.034c0.319,0.18,0.66,0.157,0.977-0.024c0.643-0.371,1.293-0.381,1.95-0.052
			c0.352,0.176,0.697,0.193,1.043-0.006c0.348-0.2,0.692-0.173,1.04,0.004c0.26,0.133,0.526,0.253,0.83,0.152
			c0.029,0.396-0.029,0.455-0.388,0.397c-0.091-0.015-0.187-0.041-0.267-0.086c-0.457-0.258-0.905-0.28-1.371-0.012
			c-0.252,0.145-0.523,0.104-0.779-0.022c-0.725-0.362-1.434-0.363-2.151,0.041c-0.265,0.15-0.579,0.151-0.848-0.002
			c-0.466-0.267-0.923-0.234-1.377-0.004c-0.374,0.189-0.727,0.2-1.112,0.02c-0.54-0.252-1.077-0.249-1.617,0.055
			c-0.426,0.239-0.843,0.064-1.243-0.127c-0.226-0.108-0.529,0.008-0.611,0.229c-0.04,0.104,0.037,0.123,0.096,0.146
			c0.66,0.265,1.298,0.627,2.038,0.184c0.387-0.233,0.834-0.16,1.225,0.027c0.45,0.217,0.858,0.227,1.305-0.01
			c0.403-0.213,0.822-0.226,1.243,0.024c0.312,0.184,0.662,0.173,0.978-0.011c0.642-0.371,1.284-0.401,1.945-0.057
			c0.356,0.185,0.714,0.196,1.074-0.006c0.321-0.181,0.65-0.172,0.98-0.017c0.244,0.114,0.483,0.248,0.771,0.191
			c0.061-0.012,0.118-0.017,0.125,0.069c0.006,0.089-0.039,0.128-0.125,0.128c-0.082,0-0.165,0.001-0.248,0.001
			c-3.789,0-7.579-0.003-11.368,0.004c-0.256,0.001-0.45-0.008-0.389-0.343c0.013-0.074-0.006-0.14-0.106-0.14
			c-0.236,0.001-0.471,0-0.706-0.002c-0.155,0-0.127,0.119-0.116,0.201c0.038,0.25-0.084,0.297-0.3,0.283
			c-0.183-0.013-0.368,0.02-0.326-0.264c0.018-0.12,0.018-0.229-0.169-0.227c-0.166,0.003-0.199,0.072-0.19,0.214
			c0.008,0.138,0.036,0.284-0.197,0.278c-0.205-0.006-0.19-0.126-0.188-0.258c0.002-0.122,0.014-0.229-0.172-0.234
			c-0.194-0.004-0.21,0.096-0.2,0.241c0.01,0.14,0.002,0.25-0.195,0.25c-0.185,0.001-0.229-0.084-0.209-0.236
			c0.028-0.206-0.062-0.273-0.258-0.251c-0.105,0.013-0.212,0.011-0.317,0c-0.182-0.019-0.295,0.02-0.263,0.238
			c0.021,0.143-0.002,0.253-0.197,0.247c-0.22-0.008-0.164-0.162-0.164-0.277c-0.002-2.541,0.002-5.084-0.007-7.627
			c-0.001-0.246,0.087-0.282,0.301-0.28c1.225,0.009,2.448,0.002,3.672,0.007c0.19,0,0.326,0.012,0.322-0.264
			c-0.005-0.261-0.096-0.304-0.329-0.302c-1.212,0.011-2.425-0.003-3.637,0.012c-0.278,0.004-0.444-0.063-0.487-0.375
			c0.118,0,0.232,0,0.346,0c1.248,0,2.495-0.012,3.743,0.008c0.304,0.004,0.386-0.089,0.359-0.375
			c-0.014-0.159-0.065-0.192-0.21-0.192c-1.789,0.004-3.577,0.002-5.366,0.004c-0.086,0-0.2-0.035-0.208,0.116
			c-0.007,0.123,0.004,0.2,0.153,0.262c0.714,0.295,1.022,0.962,0.834,1.73c-0.024,0.103-0.071,0.139-0.167,0.136
			c-0.082-0.003-0.165,0.001-0.247,0.001c-3.437,0-6.873,0-10.309,0c-0.071,0-0.142,0.001-0.212-0.001
			c-0.102-0.004-0.185,0.003-0.182,0.145c0.004,0.122,0.024,0.18,0.17,0.2c0.929,0.137,1.246,0.513,1.246,1.455
			c0,1.095,0,2.189,0,3.284c0,0.332-0.267,0.544-0.572,0.404c-0.512-0.236-0.991-0.202-1.49,0.026
			c-0.288,0.132-0.595,0.118-0.889-0.023c-0.384-0.185-0.776-0.179-1.157-0.002c-0.516,0.24-1.01,0.361-1.515-0.041
			c-0.176-0.14-0.417-0.174-0.64-0.097c-0.208,0.071-0.272,0.013-0.264-0.201c0.013-0.341-0.009-0.683,0.008-1.023
			c0.011-0.223-0.074-0.276-0.284-0.278c-0.656-0.006-0.656-0.014-0.656,0.643c0,0.871-0.001,1.741,0,2.612
			c0,0.168,0.027,0.32-0.239,0.32c-0.283-0.001-0.219-0.179-0.219-0.331c-0.003-0.977-0.01-1.953,0.004-2.93
			c0.004-0.25-0.07-0.318-0.316-0.318c-0.246,0-0.319,0.07-0.315,0.319c0.014,0.987,0.004,1.977,0.007,2.966
			c0,0.157,0.022,0.295-0.223,0.293c-0.229-0.002-0.239-0.113-0.238-0.285c0.004-0.989-0.005-1.977,0.007-2.966
			c0.002-0.238-0.053-0.342-0.311-0.323c-0.293,0.021-0.589,0.021-0.882,0c-0.259-0.018-0.343,0.057-0.339,0.33
			c0.018,0.976,0.009,1.953,0.005,2.93c0,0.136,0.073,0.323-0.197,0.311c-0.255-0.014-0.157-0.197-0.158-0.311
			c-0.007-1.164,0.003-2.329-0.01-3.494c-0.002-0.243,0.055-0.316,0.307-0.313c1.224,0.013,2.45-0.027,3.671,0.02
			C5.147,35.103,5.41,34.87,5.63,34.414z"/>
		<path fill="#FDFBFA" d="M11.938,36.09c0-0.917,0.005-1.834-0.005-2.751c-0.003-0.215,0.032-0.307,0.281-0.301
			c0.764,0.018,1.528,0.013,2.292,0.002c0.204-0.003,0.256,0.06,0.255,0.259c-0.007,1.869-0.008,3.739,0,5.608
			c0.001,0.228-0.081,0.274-0.286,0.272c-0.753-0.012-1.506-0.017-2.257,0.002c-0.249,0.005-0.287-0.087-0.285-0.304
			C11.944,37.948,11.938,37.02,11.938,36.09z"/>
		<path fill="#FAF8F6" d="M15.168,36.117c0-0.93,0.007-1.859-0.006-2.788c-0.004-0.234,0.066-0.295,0.293-0.29
			c0.741,0.014,1.482,0.012,2.224,0.001c0.211-0.002,0.305,0.03,0.304,0.28c-0.012,1.858-0.009,3.718-0.002,5.576
			c0,0.209-0.051,0.288-0.275,0.284c-0.753-0.014-1.506-0.018-2.258,0.002c-0.256,0.005-0.285-0.104-0.283-0.313
			C15.172,37.952,15.168,37.034,15.168,36.117z"/>
		<path fill="#FBFBFA" d="M18.417,36.105c0-0.931,0.006-1.859-0.005-2.789c-0.002-0.21,0.046-0.282,0.27-0.277
			c0.764,0.014,1.529,0.012,2.294,0.001c0.202-0.003,0.254,0.059,0.253,0.258c-0.007,1.87-0.008,3.74,0,5.61
			c0.001,0.227-0.081,0.274-0.288,0.271c-0.752-0.012-1.505-0.015-2.258,0.001c-0.23,0.004-0.272-0.083-0.271-0.288
			C18.421,37.964,18.417,37.033,18.417,36.105z"/>
		<path fill="#F4EEEC" d="M11.501,38.659c0.043,0.519,0.043,0.518-0.415,0.518c-1.918,0-3.837,0.002-5.756-0.001
			c-0.149-0.001-0.336,0.07-0.341-0.213c-0.004-0.243,0.087-0.334,0.315-0.366c0.26-0.036,0.498,0.015,0.7,0.165
			c0.365,0.273,0.748,0.262,1.13,0.084c0.526-0.245,1.035-0.317,1.588-0.059c0.281,0.131,0.599,0.062,0.887-0.076
			c0.405-0.193,0.818-0.221,1.222-0.012C11.061,38.818,11.265,38.727,11.501,38.659z"/>
		<path fill="#E8DBD7" d="M21.011,32.281c0.105,0.034,0.246,0.029,0.216,0.208c-0.027,0.161-0.15,0.122-0.247,0.122
			c-2.975,0.003-5.949,0.001-8.924,0.005c-0.146,0-0.242-0.043-0.313-0.172c-0.072-0.134,0.047-0.125,0.105-0.163
			c0.998-0.029,1.997-0.013,2.995-0.012C16.9,32.272,18.957,32.253,21.011,32.281z"/>
		<path fill="#FFFDFD" d="M11.5,37.73c0.032,0.373-0.229,0.597-0.577,0.444c-0.504-0.221-0.972-0.178-1.459,0.035
			c-0.277,0.12-0.58,0.122-0.856-0.009c-0.438-0.207-0.863-0.18-1.288,0.023c-0.473,0.226-0.929,0.297-1.385-0.063
			c-0.203-0.159-0.467-0.126-0.716-0.104C5.148,38.063,5.023,38.177,5.006,38c-0.011-0.118-0.051-0.25,0.137-0.31
			c0.292-0.09,0.577-0.073,0.809,0.104c0.424,0.324,0.855,0.285,1.291,0.075c0.472-0.229,0.923-0.285,1.412-0.038
			c0.296,0.15,0.623,0.092,0.922-0.048c0.43-0.199,0.861-0.23,1.286-0.005C11.093,37.901,11.289,37.763,11.5,37.73z"/>
		<path fill="#6C2921" d="M21.011,32.281c-0.081,0.008-0.162,0.022-0.244,0.022c-2.891,0.001-5.783,0.001-8.674,0
			c-0.082,0-0.162-0.015-0.244-0.022c-0.034-0.01-0.076-0.009-0.101-0.029c-0.042-0.035-0.006-0.054,0.027-0.055
			c0.071-0.003,0.141,0,0.211,0c2.962,0.001,5.923,0.001,8.885,0c0.07,0,0.144-0.013,0.211,0.002
			c0.086,0.016,0.049,0.047-0.004,0.065C21.058,32.271,21.034,32.275,21.011,32.281z"/>
		<path fill="#6D2821" d="M15.063,39.024c0-1.961,0-3.924,0-5.887c0.012,0,0.023,0,0.036,0c0,1.968,0,3.935,0,5.901
			C15.087,39.033,15.076,39.029,15.063,39.024z"/>
		<path fill="#7FB565" d="M30.939,19.699c-0.092-0.038-0.145-0.102-0.141-0.206c-0.042-0.07-0.066-0.153-0.13-0.208
			c-0.309-0.265-0.298-0.579-0.103-0.885c0.107-0.168,0.032-0.322,0.039-0.476c0.026-0.63,0.091-1.268-0.141-1.882
			c-0.067-0.179-0.026-0.491-0.1-0.546c-0.469-0.344-0.751-0.921-1.357-1.092c-0.182-0.052-0.167-0.076-0.25-0.316
			c-0.024-0.069-0.16-0.026-0.219-0.098c-0.788-0.95-1.86-0.702-2.878-0.685c-0.087,0.001-0.145,0.072-0.216,0.109
			c-0.878,0.447-1.284,1.257-1.632,2.112c-0.212,0.521-0.437,1.037-0.72,1.524c-0.349,0.601-0.733,0.648-1.185,0.139
			c-0.135-0.152-0.282-0.144-0.445-0.144c-2.613,0-5.226,0-7.837,0c-0.73,0-1.46-0.011-2.189,0.006
			c-0.271,0.007-0.367-0.091-0.337-0.346c0.005-0.047-0.006-0.096,0.002-0.142c0.025-0.137-0.084-0.352,0.118-0.39
			c0.168-0.031,0.347,0.058,0.411,0.248c0.093-0.153,0.223-0.262,0.402-0.336c0.598-0.246,0.929-0.832,0.904-1.568
			c-0.017-0.52-0.458-1.085-1.001-1.282c-0.383-0.141-0.46-0.293-0.334-0.67c0.162-0.486,0.168-0.493,0.548-0.107
			c0.396,0.399,0.897,0.526,1.393,0.374c0.49-0.151,0.864-0.526,0.971-1.07c0.05-0.253,0.136-0.311,0.345-0.157
			c0.035,0.042,0.058,0.091,0.073,0.143c0.063,0.259,0.171,0.479,0.431,0.602c0.296,0.141,0.595,0.366,0.92,0.303
			c0.758-0.149,1.258-0.541,1.296-1.338c0.009-0.212-0.02-0.427,0.014-0.634c0.033-0.211-0.048-0.339-0.225-0.427
			c-0.231-0.184-0.444-0.391-0.708-0.531c-0.093-0.102-0.273-0.158-0.182-0.354c0.03-0.058,0.093-0.087,0.124-0.145
			c0.807-0.805,0.808-1.613,0.001-2.436c-0.137-0.163-0.343-0.188-0.525-0.257c-0.103-0.038-0.176-0.067-0.11-0.191l-0.001,0.002
			c0.117-0.076,0.259-0.108,0.355-0.218c0.021-0.022,0.043-0.043,0.065-0.065c0.096-0.029,0.195-0.16,0.287,0.008
			c0.254,0.684,0.877,1.202,1.696,0.98c0.71-0.192,1.15-1.019,0.951-1.774c-0.041-0.155-0.178-0.364-0.121-0.448
			c0.107-0.16,0.354-0.143,0.548-0.18c0.1-0.019,0.199-0.087,0.306-0.025c-0.295,1.036-0.146,1.65,0.497,2.059
			c0.506,0.32,1.114,0.268,1.564-0.138c0.57-0.513,0.625-1.161,0.168-2.142c0.504-0.046,0.984,0.051,1.465,0.123
			c0.234,0.035,0.076,0.177,0.041,0.26c-0.224,0.527-0.198,1.032,0.129,1.508c0.323,0.472,0.86,0.684,1.383,0.559
			c0.551-0.132,1.008-0.594,1.054-1.147c0.03-0.366,0.143-0.387,0.419-0.215c0.218,0.136,0.453,0.247,0.731,0.396
			C27.1,6.116,26.76,6.353,26.602,6.767c-0.156,0.408-0.152,0.805,0.035,1.197c0.278,0.583,0.799,0.87,1.437,0.793
			c0.636-0.076,1.019-0.552,1.198-1.492c0.324,0.205,0.985,0.91,1.16,1.236c-1.026,0.357-1.394,0.753-1.396,1.508
			c-0.003,0.629,0.383,1.232,0.951,1.391c0.827,0.23,1.378-0.156,1.751-0.93c0.297,0.5,0.481,0.991,0.669,1.48
			c0.073,0.191-0.047,0.179-0.181,0.169c-0.724-0.052-1.313,0.354-1.488,1.022c-0.189,0.723,0.131,1.448,0.789,1.738
			c0.439,0.193,0.877,0.155,1.276-0.118c0.175-0.119,0.248-0.099,0.256,0.115c0.004,0.105,0.016,0.211,0.022,0.316
			c0.013,0.199,0.064,0.407,0.025,0.596c-0.056,0.27-0.337,0.135-0.509,0.2c-0.535,0.206-0.925,0.725-0.949,1.328
			c-0.025,0.623,0.304,1.149,0.87,1.409c0.109,0.05,0.314,0.026,0.249,0.257c-0.06,0.21-0.207,0.093-0.318,0.081
			c-0.541-0.055-0.958,0.165-1.301,0.562C31.1,19.711,31.043,19.772,30.939,19.699z"/>
		<path fill="#2D1518" d="M29.23,16.084c-0.057-0.02-0.098-0.036-0.139-0.049c-0.895-0.278-1.358,0.083-1.307,1.032
			c0.049,0.93,0.296,1.803,0.842,2.568c0.125,0.175,0.095,0.279-0.017,0.421c-0.365,0.461-0.813,0.812-1.354,1.042
			c-0.334,0.142-0.665,0.287-0.97,0.486c-0.471,0.306-0.701,0.731-0.695,1.3c0.01,1.042,0.003,2.084,0.003,3.154
			c-0.574-0.246-0.76-0.777-1.107-1.162c-0.261-0.29-0.343-0.733-0.753-0.892c-0.103-0.039-0.079-0.169-0.133-0.232
			c-0.306-0.36-0.436-0.802-0.598-1.229c-0.003-0.011-0.016-0.018-0.024-0.025c-0.13-0.114-0.209-0.416-0.314-0.372
			c-0.199,0.084-0.408,0.248-0.493,0.478c-0.053,0.144-0.12,0.23-0.272,0.264c-0.107,0.024-0.174,0.114-0.209,0.221
			c-0.119,0.355-0.35,0.502-0.736,0.57c-0.269,0.048-0.516,0.092-0.787,0.055c-0.081-0.011-0.175,0.052-0.258,0.091
			c-0.041,0.019-0.088,0.095-0.103,0.087c-0.336-0.171-0.68-0.005-1.02-0.025c-0.472-0.027-0.884-0.364-1.371-0.255
			c-0.137,0.03-0.182-0.037-0.267-0.098c-0.301-0.213-0.745-0.217-0.908-0.63c-0.294,0.042-0.304-0.243-0.449-0.374
			c-0.404-0.361-0.561-0.898-0.954-1.26c-0.026-0.022-0.054-0.067-0.078-0.065c-0.379,0.035-0.588-0.324-0.941-0.399
			c-0.206-0.044-0.466-0.19-0.686-0.303c-0.243-0.122-0.324-0.537-0.696-0.41c-0.045-0.337-0.489-0.235-0.606-0.606
			c-0.086-0.271-0.384-0.645-0.649-0.777c-0.284-0.144-0.244-0.543-0.582-0.558c0.042-0.14,0.018-0.317,0.192-0.385
			c0.062-0.023,0.139-0.004,0.21-0.004c3.305-0.001,6.611,0.002,9.916-0.004c0.206-0.001,0.325,0.047,0.449,0.234
			c0.571,0.867,1.649,0.885,2.246,0.047c0.479-0.675,0.753-1.451,1.052-2.214c0.17-0.436,0.316-0.883,0.633-1.244
			c0.283-0.323,0.643-0.452,1.063-0.463c0.495-0.011,1.023-0.051,1.406,0.296c0.353,0.318,0.619,0.694,1.122,0.853
			C29.186,15.342,29.259,15.727,29.23,16.084z"/>
		<path fill="#2D1518" d="M25.865,28.678c0-1.883-0.006-3.765,0.003-5.646c0.003-0.651,0.306-1.142,0.94-1.341
			c0.817-0.258,1.44-0.774,1.976-1.406c0.188-0.222,0.269-0.183,0.441-0.003c0.886,0.927,1.533,2.01,2.096,3.149
			c0.151,0.305-0.152,0.474-0.274,0.614c-0.219,0.248-0.665,0.157-0.922,0.425c-0.375-0.346-0.643,0.115-0.905,0.204
			c-0.327,0.109-0.618,0.464-0.917,0.716c-0.146,0.123-0.276,0.282-0.425,0.419c-0.26,0.24-0.621,0.46-0.686,0.873
			c-0.015,0.096-0.03,0.188-0.112,0.249c-0.309,0.229-0.414,0.563-0.438,0.921c-0.008,0.132-0.059,0.187-0.165,0.227
			c-0.104,0.037-0.194,0.103-0.212,0.216C26.229,28.524,26.089,28.638,25.865,28.678z"/>
		<path fill="#7FB565" d="M16.537,9.388c-0.102,0.168,0.135,0.167,0.141,0.281c-0.102,0.103-0.22,0.046-0.332,0.03
			c-0.946-0.136-1.677,0.94-1.488,1.682c0.023,0.09,0.059,0.182-0.017,0.266c-0.177-0.098-0.271-0.087-0.287,0.156
			c-0.027,0.414-0.653,1.16-0.995,1.153c-0.569-0.011-1.153-0.032-1.556-0.546c-0.062-0.079-0.149-0.141-0.23-0.215
			c-0.088,0.118-0.02,0.267-0.093,0.396c-0.134,0.233,0.026,0.541,0.284,0.598c0.472,0.104,1.021,0.763,1.042,1.247
			c0.036,0.797-0.236,1.405-1.001,1.757c-0.045,0.02-0.447,0.072-0.245,0.374c0.03,0.044-0.022,0.084-0.076,0.086
			c-0.058,0.001-0.149-0.001-0.13-0.074c0.087-0.337-0.235-0.236-0.351-0.396c-0.102,0.831-0.102,0.831,0.654,0.831
			c3.212,0,6.424,0,9.637-0.001c0.188,0,0.361-0.005,0.511,0.163c0.343,0.386,0.756,0.376,0.988-0.07
			c0.378-0.732,0.694-1.497,1.032-2.25c0.057-0.125,0.083-0.253,0.194-0.361c0.105-0.102,0.26-0.218,0.181-0.421
			c-0.023-0.061,0.021-0.119,0.08-0.139c0.409-0.14,0.727-0.412,1.012-0.718c0.135-0.146,0.206,0.024,0.311,0.016
			c0.316-0.027,0.633-0.031,0.95-0.031c0.702,0.001,1.365,0.102,1.825,0.725c0.04,0.053,0.146,0.069,0.224,0.079
			c0.074,0.009,0.166-0.066,0.214,0.042c0.015,0.034-0.01,0.124-0.019,0.125c-0.082,0.003-0.165-0.009-0.281-0.018
			c0.192,0.244,0.498,0.319,0.729,0.402c0.336,0.12,0.469,0.364,0.646,0.605c0.086,0.117,0.132,0.381,0.362,0.134
			c0.031-0.034,0.097-0.038,0.115,0.021c0.016,0.052,0.026,0.143-0.001,0.165c-0.192,0.154-0.112,0.334-0.042,0.493
			c0.217,0.494,0.114,1.014,0.137,1.521c0.005,0.13,0.011,0.26-0.002,0.388c-0.018,0.175,0.017,0.318,0.21,0.392
			c-0.428,0.26-0.474,0.549-0.167,0.929c0.072,0.09,0.109,0.177,0.098,0.289c-0.117-0.114-0.23-0.232-0.351-0.341
			c-0.143-0.127-0.154-0.254-0.09-0.438c0.277-0.797,0.31-1.609,0.1-2.43c-0.235-0.92-0.773-1.568-1.686-1.88
			c-0.089-0.031-0.186-0.038-0.217-0.15c-0.135-0.482-0.515-0.677-0.95-0.796c-0.529-0.145-1.069-0.179-1.608-0.091
			c-0.996,0.162-1.517,0.87-1.905,1.713c-0.265,0.576-0.516,1.158-0.781,1.735c-0.063,0.138-0.147,0.268-0.233,0.394
			c-0.389,0.563-0.823,0.581-1.236,0.022c-0.13-0.174-0.275-0.147-0.432-0.147c-3.283-0.002-6.565,0-9.848-0.002
			c-0.612-0.001-0.509,0.076-0.543-0.522c-0.026-0.461-0.016-0.462,0.431-0.454c0.728,0.014,1.333-0.523,1.412-1.255
			c0.084-0.765-0.405-1.484-1.128-1.588c-0.343-0.048-0.408-0.162-0.286-0.467c0.092-0.228,0.146-0.471,0.212-0.708
			c0.018-0.063-0.004-0.147,0.097-0.157c0.083-0.008,0.131,0.039,0.168,0.104c0.022,0.041,0.043,0.083,0.07,0.123
			c0.399,0.603,1.082,0.817,1.688,0.529c0.65-0.309,0.981-1.091,0.754-1.789c-0.222-0.684-0.873-1.087-1.559-0.965
			c-0.056,0.01-0.113,0.015-0.178,0.022c0.168-0.521,1.277-1.966,1.792-2.321C14.431,8.089,14.5,8.495,14.71,8.872
			c0.352,0.549,0.968,0.765,1.571,0.555C16.363,9.398,16.438,9.308,16.537,9.388z"/>
		<path fill="#732520" d="M26.015,36.382c0,0.482-0.019,0.965,0.006,1.445c0.015,0.278-0.083,0.334-0.336,0.322
			c-0.435-0.021-0.87-0.015-1.305-0.002c-0.204,0.006-0.289-0.037-0.285-0.267c0.013-1.012,0.013-2.022,0-3.033
			c-0.004-0.232,0.082-0.273,0.286-0.267c0.446,0.013,0.894,0.015,1.34,0c0.22-0.009,0.308,0.042,0.298,0.284
			C26.001,35.371,26.015,35.876,26.015,36.382z"/>
		<path fill="#80B467" d="M35.518,20.117c-0.33,1.223-0.73,2.421-1.209,3.596c-0.209,0.513-0.67,0.63-1.077,0.826
			c-0.184,0.09-0.328-0.116-0.387-0.312c-0.14-0.628-0.135-1.277-0.303-1.9c-0.021-0.076-0.075-0.219,0.102-0.232
			c0.224,0.474,0.384,0.969,0.53,1.471c0.048,0.165,0.173,0.283,0.356,0.301c0.195,0.021,0.257-0.128,0.313-0.275
			c0.436-1.128,0.86-2.26,1.163-3.433c0.025-0.1,0.092-0.227-0.005-0.293c-0.053-0.036-0.175,0.025-0.264,0.049
			c-0.161,0.043-0.313,0.217-0.488,0.062c-0.185-0.164-0.139-0.385-0.101-0.594c0.066-0.354,0.215-0.649,0.587-0.769
			c0.57-0.184,0.753-0.602,0.74-1.161c-0.008-0.35-0.06-0.41-0.411-0.367c-0.416,0.05-0.416,0.05-0.672-0.411
			c0.491,0,0.955,0,1.417,0c0.157,0.001,0.147,0.109,0.148,0.222c0.006,0.508-0.108,1.004-0.151,1.507
			c-0.015,0.173-0.19,0.191-0.28,0.292c-0.103,0.105-0.242,0.148-0.365,0.219c-0.139,0.089-0.279,0.178-0.418,0.267
			c-0.024,0.088-0.074,0.191,0.095,0.174c0.137-0.076,0.274-0.152,0.411-0.229c0.088-0.063,0.193-0.088,0.292-0.129
			c0.058-0.021,0.117-0.043,0.175-0.064c0.091,0.277-0.076,0.527-0.099,0.793C35.608,19.845,35.611,20.002,35.518,20.117z"/>
		<path fill="#732520" d="M23.713,36.344c0,0.494-0.017,0.988,0.007,1.479c0.014,0.277-0.084,0.341-0.339,0.326
			c-0.339-0.022-0.682-0.015-1.021-0.002c-0.19,0.007-0.265-0.04-0.263-0.249c0.011-1.021,0.01-2.043,0-3.065
			c-0.002-0.203,0.061-0.261,0.258-0.252c0.364,0.014,0.729,0.017,1.092-0.001c0.227-0.012,0.275,0.077,0.27,0.284
			C23.705,35.358,23.713,35.852,23.713,36.344z"/>
		<path fill="#2F171A" d="M6.265,17.741c1.222,0,2.444-0.003,3.666,0.004c0.146,0.001,0.37-0.086,0.398,0.162
			c0.029,0.261-0.186,0.244-0.364,0.255c-1.452,0.087-2.903,0.178-4.354,0.264c-0.925,0.056-1.85,0.105-2.775,0.16
			c-0.253,0.016-0.686-0.508-0.608-0.742c0.053-0.162,0.195-0.1,0.3-0.1C3.773,17.74,5.019,17.741,6.265,17.741z"/>
		<path fill="#80B467" d="M33.053,8.485c0.037,0.228,0.214,0.384,0.303,0.586c0.051,0.116,0.063,0.185-0.051,0.265
			c-0.175,0.123-0.398,0.178-0.491,0.425c-0.032,0.083-0.22-0.012-0.323-0.078c-0.042-0.064-0.153-0.11-0.063-0.215
			c0.456-0.374,0.456-0.375,0.149-0.91c-0.087-0.151-0.179-0.3-0.268-0.449c-0.156-0.211-0.207-0.441-0.08-0.678
			c0.067-0.126-0.007-0.255,0.048-0.372c0.049-0.047,0.099-0.094,0.148-0.141c0.095-0.067,0.185-0.143,0.277-0.215
			c0.026-0.023,0.051-0.047,0.076-0.07c0.039-0.04,0.073-0.086,0.024-0.137c-0.051-0.057-0.116-0.039-0.179-0.02l0.002-0.003
			c-0.082,0.09-0.168,0.174-0.286,0.218l0.005-0.005c-0.083,0.089-0.173,0.169-0.284,0.221l0.004-0.004
			c-0.09,0.081-0.177,0.166-0.29,0.219c-0.214,0.154-0.476,0.261-0.553,0.554c-0.033,0.128-0.124,0.076-0.196,0.056
			c-0.134-0.038-0.266-0.086-0.473-0.154c0.38-0.296,0.715-0.577,1.072-0.826c0.235-0.164,0.282-0.299,0.064-0.512
			c-0.167-0.163-0.318-0.346-0.454-0.535c-0.176-0.247-0.349-0.14-0.412,0.043c-0.081,0.234-0.213,0.199-0.376,0.17
			c-0.081-0.063-0.315,0.033-0.219-0.213c0.06-0.123,0.187-0.173,0.285-0.255c0.595-0.5,0.596-0.499,1.125,0.101
			c0.069,0.08,0.142,0.156,0.207,0.239c0.225,0.288,0.433,0.547,0.827,0.186c0.161-0.146,0.356-0.02,0.484,0.142
			c0.169,0.216,0.24,0.496,0.032,0.669c-0.329,0.274-0.187,0.481-0.015,0.734c0.178,0.263,0.339,0.535,0.501,0.807
			c0.078,0.133,0.216,0.22,0.308,0.099c0.24-0.317,0.44-0.103,0.68,0.004c-0.241,0.268-0.586,0.359-0.83,0.59
			c-0.108,0.095-0.197,0.046-0.28-0.04c-0.117-0.193-0.234-0.387-0.352-0.581c-0.144-0.148-0.259-0.321-0.382-0.492
			C32.881,8.107,33.037,8.269,33.053,8.485z"/>
		<path fill="#2D1619" d="M27.4,37.203c-0.065-0.813-0.131-1.602-0.194-2.392c-0.16-2.012-0.318-4.024-0.477-6.036
			c-0.003-0.035-0.01-0.071-0.007-0.105c0.012-0.126-0.095-0.32,0.116-0.345c0.191-0.022,0.152,0.174,0.169,0.289
			c0.208,1.416,0.417,2.83,0.611,4.248c0.141,1.022,0.282,2.044,0.378,3.073C28.068,36.688,28.086,36.687,27.4,37.203z"/>
		<path fill="#732520" d="M25.996,33.293c0,0.304,0.12,0.711-0.031,0.884c-0.177,0.205-0.595,0.065-0.907,0.063
			c-0.312-0.001-0.727,0.143-0.906-0.065c-0.153-0.178-0.045-0.581-0.051-0.885c-0.002-0.105,0.018-0.215-0.003-0.315
			c-0.159-0.775,0.374-1.113,0.904-1.459c0.099-0.065,0.115,0.025,0.167,0.05c0.681,0.315,0.974,0.839,0.846,1.587
			c-0.008,0.046-0.001,0.094-0.001,0.141C26.008,33.293,26.003,33.293,25.996,33.293z"/>
		<path fill="#2D1619" d="M2.97,19.01c2.301-0.175,4.525-0.345,6.748-0.516c0.246-0.018,0.491-0.046,0.737-0.064
			c0.107-0.008,0.216-0.017,0.223,0.146c0.005,0.144-0.078,0.178-0.195,0.195c-0.824,0.117-1.648,0.237-2.472,0.356
			c-1.358,0.196-2.719,0.382-4.073,0.602c-0.248,0.04-0.373-0.043-0.509-0.197C3.292,19.376,3.154,19.22,2.97,19.01z"/>
		<path fill="#2D1519" d="M4.227,20.272c2.215-0.449,4.43-0.899,6.647-1.343c0.124-0.025,0.31-0.095,0.356,0.104
			c0.047,0.202-0.141,0.203-0.271,0.241c-1.854,0.537-3.71,1.065-5.559,1.621c-0.372,0.111-0.639,0.08-0.874-0.242
			c-0.086-0.118-0.233-0.192-0.353-0.287C4.192,20.336,4.209,20.305,4.227,20.272z"/>
		<path fill="#2F171A" d="M26.358,38.128c0-2.954,0-5.907,0.003-8.861c0-0.091-0.062-0.249,0.102-0.25
			c0.152-0.001,0.112,0.15,0.117,0.248c0.095,1.7,0.188,3.4,0.283,5.102c0.055,0.973,0.099,1.947,0.181,2.918
			c0.042,0.511-0.433,0.574-0.6,0.896C26.416,38.163,26.387,38.146,26.358,38.128z"/>
		<path fill="#742621" d="M22.102,33.179c0-0.129,0.02-0.263-0.004-0.387c-0.12-0.645,0.225-1.012,0.743-1.28
			c0.034-0.018,0.045-0.065,0.111-0.044c0.387,0.121,0.76,0.618,0.762,1.037c0.002,0.48-0.015,0.962,0.006,1.442
			c0.011,0.259-0.083,0.316-0.32,0.303c-0.339-0.018-0.682-0.021-1.021,0.001c-0.246,0.017-0.296-0.08-0.282-0.298
			C22.114,33.695,22.102,33.437,22.102,33.179z"/>
		<path fill="#2D1619" d="M28.281,36.386c-0.065-1.586-0.322-3.068-0.546-4.554c-0.204-1.346-0.442-2.686-0.662-4.028
			c-0.018-0.11-0.062-0.267,0.093-0.293c0.118-0.021,0.15,0.116,0.174,0.226c0.523,2.356,1.097,4.703,1.386,7.105
			c0.037,0.302,0.024,0.61,0.027,0.916C28.756,36.064,28.473,36.15,28.281,36.386z"/>
		<path fill="#2D1619" d="M29.844,34.76c-0.149-2.822-0.947-5.435-1.837-8.025c-0.059-0.169-0.251-0.424,0.018-0.514
			c0.222-0.074,0.244,0.232,0.31,0.39c0.833,1.979,1.465,4.018,1.808,6.14c0.063,0.393,0.052,0.798,0.117,1.189
			C30.322,34.313,30.125,34.522,29.844,34.76z"/>
		<path fill="#2D1619" d="M29.139,35.478c-0.22-2.84-0.94-5.545-1.663-8.248c-0.016-0.056-0.047-0.109-0.056-0.166
			c-0.018-0.107-0.021-0.236,0.092-0.278c0.155-0.059,0.154,0.101,0.188,0.187c0.479,1.223,0.806,2.491,1.122,3.763
			c0.285,1.147,0.52,2.306,0.684,3.479C29.611,34.972,29.574,35.137,29.139,35.478z"/>
		<path fill="#2D1619" d="M30.599,33.931c-0.113-2.853-0.976-5.451-2.023-8.003c-0.022-0.054-0.038-0.111-0.063-0.164
			c-0.049-0.106-0.064-0.216,0.058-0.271c0.145-0.066,0.173,0.069,0.217,0.159c0.459,0.935,0.863,1.893,1.205,2.877
			c0.511,1.476,0.891,2.983,1.029,4.544C31.055,33.443,31.052,33.444,30.599,33.931z"/>
		<path fill="#2D1619" d="M6.581,22.444c1.732-0.825,3.4-1.622,5.069-2.416c0.052-0.024,0.106-0.05,0.163-0.058
			c0.128-0.019,0.24,0.022,0.292,0.146c0.06,0.145-0.077,0.175-0.16,0.222c-0.906,0.518-1.814,1.031-2.721,1.545
			c-0.51,0.288-1.035,0.555-1.527,0.87c-0.262,0.169-0.458,0.163-0.685-0.024C6.897,22.635,6.763,22.563,6.581,22.444z"/>
		<path fill="#2D1619" d="M31.373,33.032c-0.17-2.763-1.174-5.188-2.221-7.601c-0.046-0.106-0.223-0.257-0.029-0.357
			c0.184-0.096,0.263,0.089,0.336,0.22c0.835,1.475,1.37,3.067,1.833,4.688c0.202,0.708,0.339,1.433,0.482,2.155
			C31.849,32.521,31.585,32.7,31.373,33.032z"/>
		<path fill="#2D1619" d="M5.426,21.503c1.978-0.692,3.898-1.366,5.819-2.038c0.127-0.044,0.291-0.148,0.369,0.024
			c0.084,0.188-0.118,0.221-0.236,0.273c-1.684,0.732-3.369,1.461-5.05,2.2c-0.179,0.078-0.302,0.072-0.438-0.061
			C5.757,21.772,5.609,21.659,5.426,21.503z"/>
		<path fill="#2D1619" d="M32.153,31.836c-0.243-0.999-0.487-1.983-0.786-2.954c-0.398-1.296-0.865-2.566-1.497-3.771
			c-0.056-0.106-0.236-0.23-0.031-0.351c0.196-0.115,0.236,0.09,0.297,0.195c0.833,1.418,1.438,2.935,1.93,4.498
			c0.123,0.391,0.212,0.792,0.352,1.176C32.584,31.087,32.471,31.467,32.153,31.836z"/>
		<path fill="#2D1619" d="M18.022,24.946c-0.048,1.198-0.101,2.396-0.138,3.592c-0.006,0.189-0.08,0.219-0.232,0.199
			c-0.058-0.008-0.117-0.01-0.176-0.015c-0.305-0.021-0.45-0.1-0.389-0.486c0.215-1.367,0.377-2.743,0.557-4.117
			c0.019-0.14,0.005-0.306,0.21-0.298c0.208,0.009,0.182,0.173,0.182,0.314c0,0.271,0,0.54,0,0.811
			C18.031,24.946,18.027,24.946,18.022,24.946z"/>
		<path fill="#2D1619" d="M13.148,26.677c-0.034-0.012-0.046-0.012-0.053-0.019c-0.633-0.554-0.63-0.552-0.189-1.251
			c0.67-1.062,1.334-2.126,2.003-3.188c0.06-0.094,0.113-0.238,0.261-0.173c0.133,0.06,0.118,0.191,0.063,0.307
			C14.538,23.795,13.842,25.237,13.148,26.677z"/>
		<path fill="#2D1619" d="M14.144,27.438c-0.029-0.002-0.041,0.001-0.049-0.003c-0.744-0.453-0.74-0.451-0.337-1.233
			c0.55-1.069,1.095-2.144,1.645-3.214c0.059-0.115,0.092-0.315,0.282-0.227c0.154,0.073,0.059,0.221,0.016,0.341
			c-0.5,1.407-1,2.815-1.5,4.223C14.185,27.366,14.16,27.404,14.144,27.438z"/>
		<path fill="#81B567" d="M34.329,12.059c0.075-0.03,0.147-0.071,0.225-0.091c0.187-0.047,0.243-0.137,0.174-0.332
			c-0.159-0.453-0.329-0.901-0.523-1.341c-0.125-0.28-0.346-0.215-0.431-0.087c-0.266,0.397-0.453,0.071-0.764-0.041
			c0.438-0.222,0.809-0.408,1.177-0.598c0.124-0.063,0.167,0.013,0.21,0.104c0.512,1.11,0.912,2.26,1.181,3.454
			c0.036,0.157-0.011,0.224-0.164,0.22c-0.093-0.002-0.206,0.014-0.276-0.031c-0.439-0.285-1.026-0.348-1.311-0.865
			c-0.13-0.131-0.024-0.19,0.075-0.253l-0.002,0.003C34.046,12.165,34.205,12.163,34.329,12.059z"/>
		<path fill="#2E1619" d="M17.11,24.265c-0.121,1.368-0.243,2.736-0.357,4.104c-0.012,0.141-0.046,0.196-0.186,0.154
			c-0.011-0.004-0.023-0.004-0.035-0.006c-0.592-0.119-0.599-0.12-0.49-0.715c0.238-1.291,0.479-2.58,0.73-3.869
			c0.022-0.117-0.001-0.334,0.202-0.31c0.205,0.023,0.19,0.195,0.15,0.359c-0.022,0.09-0.015,0.187-0.021,0.281
			C17.105,24.265,17.107,24.265,17.11,24.265z"/>
		<path fill="#2D1619" d="M32.818,30.499c-0.396-1.353-0.824-2.611-1.369-3.83c-0.276-0.618-0.586-1.221-0.914-1.815
			c-0.054-0.097-0.163-0.216-0.037-0.313c0.149-0.116,0.201,0.054,0.258,0.139c0.973,1.446,1.711,3.011,2.295,4.645
			C33.188,29.702,32.954,30.066,32.818,30.499z"/>
		<path fill="#81B567" d="M34.127,16.011c-0.045-0.237,0.144-0.13,0.223-0.134c0.527-0.025,0.523-0.021,0.493-0.56
			c-0.017-0.316-0.03-0.635-0.024-0.952c0.007-0.418,0.452-0.694,0.835-0.535c0.127,0.053,0.115,0.176,0.128,0.269
			c0.066,0.476,0.14,0.953,0.165,1.433c0.014,0.263,0.118,0.325,0.345,0.306c0.423-0.035,0.423-0.033,0.655,0.398
			c-0.484,0-0.946,0-1.408,0c-0.118-0.498-0.048-1.021-0.215-1.567c-0.063,0.48-0.04,0.913-0.035,1.344
			c0.002,0.197-0.057,0.284-0.26,0.262c-0.081-0.009-0.175-0.028-0.243,0.013C34.436,16.498,34.283,16.256,34.127,16.011z"/>
		<path fill="#2D1619" d="M7.878,23.201c0.054-0.129,0.178-0.16,0.274-0.219c1.316-0.813,2.634-1.62,3.951-2.43
			c0.07-0.042,0.138-0.092,0.213-0.122c0.065-0.027,0.148-0.028,0.191,0.036c0.046,0.067,0.014,0.123-0.052,0.176
			c-0.108,0.088-0.194,0.203-0.305,0.286c-1.014,0.76-2.044,1.499-3.039,2.283c-0.314,0.247-0.581,0.286-0.915,0.118
			C8.095,23.279,7.985,23.244,7.878,23.201z"/>
		<path fill="#2E1619" d="M15.535,28.163c-0.785-0.275-0.785-0.275-0.556-1.018c0.354-1.149,0.707-2.299,1.06-3.448
			c0.01-0.033,0.006-0.074,0.024-0.103c0.056-0.088,0.034-0.273,0.208-0.221c0.129,0.039,0.086,0.165,0.067,0.271
			c-0.103,0.564-0.198,1.13-0.298,1.693C15.874,26.271,15.707,27.203,15.535,28.163z"/>
		<path fill="#2E171A" d="M18.932,28.043c0,0.142-0.009,0.317,0.003,0.493c0.01,0.146-0.039,0.192-0.187,0.218
			c-0.525,0.09-0.541,0.094-0.512-0.434c0.07-1.265,0.151-2.529,0.229-3.793c0.001-0.013-0.002-0.025,0.003-0.035
			c0.057-0.136-0.033-0.396,0.208-0.376c0.211,0.02,0.165,0.248,0.168,0.407C18.871,25.685,18.855,26.848,18.932,28.043z"/>
		<path fill="#80B467" d="M12.303,11.375c-0.009-0.502,0.369-0.919,0.829-0.915c0.472,0.004,0.852,0.404,0.854,0.9
			c0.001,0.474-0.37,0.88-0.819,0.896C12.696,12.272,12.311,11.879,12.303,11.375z"/>
		<path fill="#80B465" d="M22.089,5.411c0.011,0.485-0.368,0.906-0.83,0.924c-0.453,0.018-0.854-0.396-0.861-0.886
			C20.39,4.944,20.75,4.54,21.22,4.527C21.675,4.514,22.08,4.925,22.089,5.411z"/>
		<path fill="#80B467" d="M15.834,8.902c-0.477,0.002-0.853-0.393-0.849-0.89c0.003-0.512,0.363-0.896,0.841-0.897
			c0.474-0.001,0.844,0.387,0.849,0.892C16.681,8.509,16.313,8.901,15.834,8.902z"/>
		<path fill="#80B465" d="M27.036,7.347c-0.005-0.522,0.332-0.907,0.808-0.923c0.474-0.015,0.881,0.406,0.877,0.909
			c-0.003,0.48-0.366,0.863-0.828,0.876C27.397,8.221,27.041,7.863,27.036,7.347z"/>
		<path fill="#80B465" d="M29.578,10.008c0.003-0.516,0.366-0.898,0.844-0.889c0.477,0.01,0.834,0.409,0.823,0.92
			c-0.01,0.496-0.36,0.853-0.839,0.855C29.9,10.896,29.575,10.547,29.578,10.008z"/>
		<path fill="#80B465" d="M32.866,13.664c0.009,0.417-0.346,0.756-0.795,0.761c-0.495,0.005-0.859-0.359-0.864-0.862
			c-0.005-0.496,0.371-0.906,0.833-0.909C32.542,12.649,32.854,13.03,32.866,13.664z"/>
		<path fill="#2D1619" d="M19.291,28.643c0-1.007,0-1.989,0-2.974c0-0.435,0.002-0.868-0.001-1.302
			c-0.001-0.129,0.014-0.247,0.166-0.26c0.161-0.013,0.177,0.105,0.185,0.233c0.07,1.086,0.144,2.174,0.216,3.261
			c0.006,0.08,0.009,0.163,0.017,0.244C19.931,28.46,19.931,28.46,19.291,28.643z"/>
		<path fill="#80B467" d="M25.856,5.42C25.85,5.86,25.595,6.191,25.2,6.299c-0.324,0.089-0.689-0.06-0.884-0.356
			c-0.214-0.326-0.193-0.805,0.048-1.088c0.015-0.019,0.027-0.043,0.047-0.053c0.458-0.214,0.82,0.133,1.227,0.215
			C25.86,5.063,25.85,5.269,25.856,5.42z"/>
		<path fill="#2E171A" d="M12.27,25.685c-0.374-0.482-0.374-0.481-0.066-0.916c0.712-1.006,1.424-2.012,2.137-3.018
			c0.034-0.048,0.065-0.1,0.101-0.146c0.064-0.082,0.127-0.194,0.253-0.11c0.132,0.088,0.041,0.188-0.012,0.273
			c-0.324,0.529-0.652,1.058-0.979,1.587C13.23,24.124,12.758,24.894,12.27,25.685z"/>
		<path fill="#2E1719" d="M20.142,28.32c0-0.427,0.002-0.751,0-1.076c-0.006-0.998-0.013-1.997-0.02-2.994
			c0-0.129-0.016-0.286,0.164-0.295c0.181-0.01,0.184,0.146,0.194,0.276c0.09,1.144,0.189,2.289,0.264,3.435
			C20.768,28.019,20.408,28.065,20.142,28.32z"/>
		<path fill="#80B467" d="M18.855,5.646c0.001,0.438-0.293,0.807-0.71,0.889c-0.377,0.075-0.774-0.155-0.926-0.54
			c-0.091-0.232-0.098-0.429,0.193-0.535c0.242-0.088,0.471-0.211,0.708-0.313C18.621,4.932,18.853,5.09,18.855,5.646z"/>
		<path fill="#80B467" d="M11.493,15.555c-0.386-0.003-0.483-0.108-0.438-0.482c0.038-0.326,0.09-0.651,0.113-0.979
			c0.018-0.271,0.169-0.333,0.401-0.312c0.454,0.04,0.814,0.466,0.785,0.928C12.321,15.209,11.966,15.558,11.493,15.555z"/>
		<path fill="#2F171A" d="M21.03,27.475c-0.031-0.522-0.066-1.044-0.093-1.566c-0.031-0.598-0.056-1.195-0.084-1.794
			c-0.007-0.133-0.008-0.281,0.153-0.31c0.193-0.034,0.179,0.132,0.199,0.257c0.131,0.833,0.267,1.665,0.397,2.499
			C21.673,27.008,21.289,27.192,21.03,27.475z"/>
		<path fill="#2E171A" d="M9.407,23.53c1.071-0.925,2.142-1.848,3.211-2.774c0.088-0.075,0.189-0.133,0.28-0.05
			c0.118,0.11-0.008,0.188-0.077,0.256c-0.852,0.84-1.702,1.68-2.561,2.512C10.02,23.707,9.71,23.562,9.407,23.53z"/>
		<path fill="#2E181A" d="M33.185,28.364c-0.63-1.343-1.357-2.62-2.167-3.853c-0.041-0.061-0.119-0.144-0.008-0.208
			c0.088-0.052,0.153,0.013,0.206,0.082c0.651,0.86,1.339,1.7,1.842,2.659C33.266,27.444,33.212,27.913,33.185,28.364z"/>
		<path fill="#2E181B" d="M11.844,24.889c-0.215-0.317-0.254-0.568-0.009-0.895c0.668-0.891,1.292-1.815,1.934-2.726
			c0.067-0.095,0.122-0.274,0.277-0.165c0.137,0.093,0.005,0.212-0.05,0.304C13.284,22.563,12.569,23.717,11.844,24.889z"/>
		<path fill="#2F181B" d="M11.557,23.943c-0.154-0.495-0.099-0.878,0.243-1.255c0.496-0.546,0.932-1.147,1.396-1.723
			c0.069-0.086,0.141-0.233,0.276-0.146c0.162,0.107-0.004,0.208-0.057,0.289C12.806,22.048,12.189,22.981,11.557,23.943z"/>
		<path fill="#2D1719" d="M25.576,29.261c-0.618-0.268-0.636-0.312-0.542-0.903c0.095-0.602,0.177-1.204,0.261-1.808
			c0.017-0.117,0.014-0.265,0.165-0.266c0.198-0.003,0.111,0.173,0.112,0.267C25.58,27.45,25.576,28.35,25.576,29.261z"/>
		<path fill="#81B567" d="M33.102,16.843c-0.04,0.352-0.088,0.76-0.129,1.169c-0.023,0.231-0.129,0.271-0.326,0.175
			c-0.291-0.142-0.518-0.505-0.485-0.841c0.034-0.361,0.2-0.654,0.547-0.805C32.998,16.416,33.121,16.5,33.102,16.843z"/>
		<path fill="#2F181A" d="M24.137,28.26c-0.552-0.358-0.55-0.364-0.433-0.914c0.156-0.733,0.304-1.469,0.456-2.203
			c0.018-0.088,0.002-0.22,0.134-0.203c0.13,0.017,0.089,0.144,0.083,0.231C24.299,26.186,24.219,27.201,24.137,28.26z"/>
		<path fill="#2F191B" d="M22.901,26.971c-0.33-0.356-0.418-0.695-0.277-1.126c0.211-0.644,0.369-1.304,0.547-1.957
			c0.023-0.086,0.012-0.213,0.142-0.188c0.119,0.022,0.149,0.133,0.127,0.251C23.263,24.941,23.086,25.931,22.901,26.971z"/>
		<path fill="#2F191B" d="M23.419,27.628c-0.25-0.239-0.441-0.41-0.328-0.788c0.229-0.76,0.393-1.538,0.587-2.309
			c0.024-0.093,0.024-0.243,0.169-0.219c0.11,0.019,0.105,0.14,0.089,0.235C23.769,25.56,23.598,26.57,23.419,27.628z"/>
		<path fill="#2F191B" d="M24.804,28.768c-0.427-0.165-0.542-0.395-0.441-0.809c0.148-0.612,0.208-1.245,0.314-1.867
			c0.017-0.099-0.001-0.274,0.179-0.239c0.149,0.028,0.084,0.175,0.08,0.265C24.898,26.994,24.851,27.869,24.804,28.768z"/>
		<path fill="#301A1C" d="M21.796,26.416c-0.105-0.688-0.21-1.376-0.314-2.064c-0.029-0.196-0.058-0.394-0.079-0.592
			c-0.007-0.067-0.011-0.146,0.08-0.169c0.117-0.029,0.13,0.057,0.153,0.139c0.18,0.642,0.378,1.278,0.538,1.925
			C22.251,25.967,21.979,26.171,21.796,26.416z"/>
		<path fill="#82B469" d="M32.108,20.996c-0.155-0.167-0.272-0.268-0.355-0.39c-0.102-0.149-0.364-0.222-0.25-0.484
			c0.122-0.279,0.334-0.447,0.634-0.494c0.404-0.063,0.469,0.014,0.336,0.394C32.363,20.328,32.245,20.633,32.108,20.996z"/>
		<path fill="#2F1A1C" d="M22.724,24.883c-0.031,0.081-0.051,0.147-0.083,0.21c-0.049,0.093-0.106,0.216-0.209,0.217
			c-0.151,0.002-0.101-0.158-0.123-0.247c-0.136-0.554-0.263-1.109-0.389-1.665c-0.022-0.1-0.064-0.233,0.069-0.274
			c0.129-0.039,0.17,0.083,0.204,0.185C22.371,23.836,22.549,24.363,22.724,24.883z"/>
		<path fill="#2F191C" d="M31.462,23.935c0.138-0.018,0.197,0.045,0.242,0.113c0.299,0.461,0.639,0.896,0.874,1.399
			c0.047,0.1,0.113,0.22,0.019,0.288c-0.121,0.085-0.181-0.064-0.239-0.141c-0.313-0.412-0.623-0.825-0.925-1.244
			C31.321,24.197,31.275,24.034,31.462,23.935z"/>
		<path fill="#F6FAF0" d="M34.127,16.011c0.243,0.459,0.646,0.227,0.993,0.229c0.162,0.001,0.139-0.132,0.135-0.232
			c-0.012-0.387-0.031-0.772-0.045-1.159c-0.006-0.158-0.032-0.323,0.161-0.497c0.123,0.662,0.132,1.274,0.168,1.885
			c-0.18-0.378-0.14-0.788-0.216-1.188c0,0.33-0.007,0.662,0.003,0.993c0.005,0.191-0.055,0.285-0.26,0.273
			c-0.103-0.007-0.212,0.006-0.311,0.037C34.397,16.465,34.268,16.398,34.127,16.011z"/>
		<path fill="#311D1F" d="M22.759,24.303c-0.119-0.605-0.227-1.16-0.338-1.732C22.925,22.729,23.076,23.501,22.759,24.303z"/>
		<path fill="#8FB57B" d="M32.645,22.095c-0.17,0.236,0.004,0.466,0.034,0.691c0.061,0.48,0.131,0.958,0.167,1.441
			c-0.193-0.375-0.14-0.793-0.207-1.19c-0.085-0.504-0.209-0.995-0.369-1.479c-0.029-0.08,0.015-0.097,0.081-0.094
			C32.425,21.687,32.629,21.847,32.645,22.095z"/>
		<path fill="#8CB677" d="M36.797,17.58c-0.018,0.167-0.12,0.258-0.274,0.259c-0.142,0.002-0.255-0.083-0.242-0.235
			c0.013-0.16,0.107-0.296,0.288-0.286C36.713,17.324,36.779,17.442,36.797,17.58z"/>
		<path fill="#89B473" d="M34.019,13.69c-0.012,0.169-0.1,0.272-0.265,0.271c-0.156-0.001-0.234-0.111-0.224-0.259
			c0.01-0.155,0.098-0.273,0.264-0.275C33.957,13.426,34,13.557,34.019,13.69z"/>
		<path fill="#88B371" d="M33.849,13.023c-0.008,0.15-0.086,0.252-0.262,0.244c-0.156-0.008-0.237-0.111-0.229-0.257
			c0.009-0.156,0.103-0.273,0.269-0.268C33.777,12.748,33.851,12.855,33.849,13.023z"/>
		<path fill="#87B471" d="M36.09,21.583c-0.006,0.174-0.106,0.268-0.263,0.269c-0.15,0.002-0.231-0.104-0.224-0.253
			c0.008-0.155,0.089-0.272,0.257-0.269C36.012,21.332,36.075,21.445,36.09,21.583z"/>
		<path fill="#89B372" d="M35.806,22.325c-0.011,0.158-0.099,0.257-0.261,0.264c-0.157,0.007-0.233-0.092-0.231-0.242
			c0.001-0.161,0.092-0.272,0.252-0.277C35.717,22.064,35.786,22.178,35.806,22.325z"/>
		<path fill="#8BB475" d="M35.592,9.991c-0.029,0.162-0.121,0.255-0.289,0.243c-0.144-0.009-0.205-0.106-0.201-0.239
			c0.006-0.166,0.092-0.265,0.264-0.264C35.535,9.733,35.572,9.856,35.592,9.991z"/>
		<path fill="#84B36C" d="M35.895,10.664c-0.007,0.17-0.084,0.278-0.251,0.278c-0.151,0-0.235-0.104-0.233-0.248
			c0.001-0.144,0.095-0.24,0.238-0.253C35.802,10.428,35.876,10.525,35.895,10.664z"/>
		<path fill="#88B372" d="M32.045,5.366c-0.159-0.014-0.24-0.117-0.231-0.258c0.011-0.154,0.113-0.265,0.281-0.254
			c0.163,0.01,0.206,0.131,0.2,0.276C32.289,5.291,32.193,5.356,32.045,5.366z"/>
		<path fill="#88B272" d="M16.537,9.388c-0.489,0.19-0.975,0.241-1.444-0.054c-0.176-0.111-0.369-0.214-0.383-0.462
			c0.67,0.664,1.066,0.737,1.89,0.354C16.579,9.28,16.558,9.334,16.537,9.388z"/>
		<path fill="#F4F9EC" d="M33.053,8.485c-0.122-0.195-0.244-0.39-0.365-0.585c-0.043-0.068-0.034-0.14,0.031-0.184
			c0.086-0.058,0.124,0.022,0.156,0.08c0.111,0.199,0.272,0.371,0.328,0.601C33.105,8.347,33.057,8.377,33.053,8.485z"/>
		<path fill="#703C35" d="M24.113,31.837c-0.026-0.485-0.014-0.493,0.55-0.386C24.481,31.579,24.317,31.695,24.113,31.837z"/>
		<path fill="#6B3731" d="M25.979,31.813c-0.169-0.121-0.33-0.236-0.505-0.362C26.031,31.344,26.049,31.356,25.979,31.813z"/>
		<path fill="#F6FAF1" d="M32.278,7.059c0.013,0.117,0.102,0.222,0.005,0.355c-0.165,0.229-0.043,0.465,0.027,0.694
			C32.119,7.96,32.065,7.77,32.137,7.54C32.187,7.38,32.231,7.219,32.278,7.059z"/>
		<path fill="#8AB277" d="M15.966,6.343c0.014,0.178,0.177,0.159,0.283,0.206c0.134,0.06,0.297,0.069,0.352,0.242
			c-0.274-0.126-0.55-0.244-0.872-0.237C15.775,6.418,15.862,6.371,15.966,6.343z"/>
		<path fill="#F3F8ED" d="M35.518,20.117c0.067-0.396,0.134-0.792,0.201-1.187c0.026,0.021,0.08,0.047,0.077,0.061
			C35.71,19.368,35.725,19.77,35.518,20.117z"/>
		<path fill="#683933" d="M23.301,31.424c0.255-0.02,0.468-0.101,0.401,0.244C23.553,31.643,23.471,31.529,23.301,31.424z"/>
		<path fill="#6D423B" d="M22.523,31.42c-0.181,0.12-0.284,0.188-0.396,0.265C22.029,31.317,22.259,31.407,22.523,31.42z"/>
		<path fill="#8BB177" d="M33.902,12.198c-0.04,0.079-0.134,0.143-0.075,0.253c-0.083-0.029-0.183-0.024-0.25-0.137
			C33.672,12.242,33.777,12.198,33.902,12.198z"/>
		<path fill="#F6FAF1" d="M32.625,6.477c0.079-0.103,0.188-0.105,0.258-0.019c0.072,0.091,0.017,0.166-0.104,0.175
			C32.778,6.531,32.711,6.494,32.625,6.477z"/>
		<path fill="#98B787" d="M32.351,21.465c-0.027,0.031-0.054,0.063-0.081,0.094c-0.061-0.085-0.211-0.176-0.071-0.272
			C32.273,21.236,32.333,21.373,32.351,21.465z"/>
		<path fill="#8BB177" d="M34.329,12.059c-0.105,0.161-0.264,0.161-0.429,0.143C34.028,12.111,34.176,12.077,34.329,12.059z"/>
		<path fill="#99BB86" d="M30.23,5.704c-0.007,0.153,0.155,0.133,0.219,0.213c-0.114,0.013-0.242,0.036-0.316-0.066
			C30.083,5.781,30.175,5.74,30.23,5.704z"/>
		<path fill="#F3F8ED" d="M35.163,18.913c0.099-0.111,0.226-0.176,0.366-0.219C35.462,18.86,35.323,18.903,35.163,18.913z"/>
		<path fill="#8AB277" d="M16.32,6.127c-0.065,0.159-0.202,0.203-0.355,0.218C16.054,6.226,16.176,6.157,16.32,6.127z"/>
		<path fill="#F6FAF1" d="M31.777,7.122c0.075-0.102,0.166-0.182,0.29-0.219C32.016,7.036,31.933,7.127,31.777,7.122z"/>
		<path fill="#F6FAF1" d="M32.703,6.703c-0.052,0.124-0.141,0.2-0.277,0.215C32.486,6.804,32.562,6.712,32.703,6.703z"/>
		<path fill="#F6FAF1" d="M32.063,6.907c0.068-0.107,0.162-0.183,0.284-0.221C32.301,6.825,32.219,6.914,32.063,6.907z"/>
		<path fill="#F6FAF1" d="M32.341,6.69c0.073-0.102,0.161-0.184,0.286-0.217C32.583,6.613,32.502,6.705,32.341,6.69z"/>
		<path fill="#95B882" d="M16.671,6.069c-0.094-0.076-0.192,0.01-0.287-0.008C16.482,6.004,16.585,5.753,16.671,6.069z"/>
		<path fill="#98BB84" d="M30.939,19.699c0.07-0.024,0.139-0.049,0.208-0.073c0.016,0.077-0.022,0.14-0.085,0.162
			C31.005,19.809,30.967,19.749,30.939,19.699z"/>
		<path fill="#92B67F" d="M32.429,9.468c0.021,0.071,0.042,0.143,0.063,0.215c-0.073-0.026-0.17-0.039-0.185-0.126
			C32.297,9.5,32.364,9.467,32.429,9.468z"/>
		<path fill="#F4F9EC" d="M33.555,8.979c0.088,0.048,0.179,0.078,0.279,0.04C33.721,9.146,33.624,9.159,33.555,8.979z"/>
		<path fill="#F3F8ED" d="M35.542,18.995c-0.083,0.075-0.172,0.135-0.291,0.129C35.312,19,35.42,18.981,35.542,18.995z"/>
		<path fill="#F3F8ED" d="M34.841,19.354c-0.052,0.06-0.112,0.086-0.167,0.012c-0.069-0.092-0.001-0.143,0.072-0.186
			C34.756,19.249,34.771,19.316,34.841,19.354z"/>
		<path fill="#742621" d="M14.249,35.62c-0.038,0.254,0.146,0.671-0.077,0.849c-0.19,0.151-0.586,0.049-0.891,0.049
			c-0.832,0.003-0.832,0.002-0.832-0.84c0-0.283,0.001-0.564-0.001-0.848c0-0.118-0.008-0.309,0.081-0.324
			c0.458-0.076,0.321-0.648,0.687-0.783c0.268-0.098,0.519,0.092,0.532,0.426c0.005,0.102-0.026,0.16,0.12,0.175
			c0.293,0.026,0.378,0.24,0.382,0.5C14.253,35.07,14.249,35.318,14.249,35.62z"/>
		<path fill="#742622" d="M12.449,37.863c0-0.235,0.013-0.472-0.003-0.705c-0.013-0.194,0.067-0.236,0.244-0.232
			c0.447,0.011,0.895,0.01,1.341,0c0.169-0.003,0.226,0.05,0.223,0.22c-0.009,0.482-0.01,0.965,0,1.446
			c0.003,0.188-0.065,0.243-0.247,0.239c-0.447-0.011-0.895-0.01-1.341,0c-0.172,0.003-0.227-0.061-0.22-0.227
			C12.457,38.358,12.449,38.11,12.449,37.863z"/>
		<path fill="#784039" d="M13.874,33.716c0.483-0.067,0.483-0.067,0.461,0.552C14.052,34.188,13.888,34.016,13.874,33.716z"/>
		<path fill="#732521" d="M12.73,33.906c-0.076,0.147-0.156,0.29-0.353,0.316c-0.034-0.156-0.032-0.313,0-0.468
			C12.519,33.749,12.734,33.575,12.73,33.906z"/>
		<path fill="#703B36" d="M12.73,33.906c-0.041-0.228-0.224-0.129-0.353-0.151c0.135-0.129,0.288-0.091,0.425-0.021
			C12.837,33.751,12.791,33.86,12.73,33.906z"/>
		<path fill="#732520" d="M15.689,35.518c0-0.234,0-0.47,0-0.704c0-0.116-0.023-0.307,0.08-0.319
			c0.469-0.06,0.326-0.641,0.691-0.771c0.248-0.087,0.489,0.075,0.505,0.368c0.008,0.149,0.007,0.22,0.189,0.243
			c0.205,0.026,0.313,0.188,0.312,0.405c0,0.527-0.004,1.057,0.003,1.585c0.002,0.157-0.058,0.198-0.205,0.195
			c-0.458-0.006-0.916-0.01-1.373,0.002c-0.185,0.006-0.21-0.077-0.205-0.23C15.696,36.034,15.689,35.775,15.689,35.518z"/>
		<path fill="#732520" d="M17.468,37.931c-0.037,0.255,0.144,0.668-0.076,0.846c-0.186,0.151-0.582,0.048-0.885,0.049
			c-0.817,0.004-0.817,0.002-0.817-0.81c0-0.281,0.008-0.563-0.002-0.844c-0.007-0.169,0.021-0.255,0.223-0.247
			c0.445,0.016,0.891,0.015,1.336,0c0.2-0.008,0.232,0.077,0.225,0.247C17.459,37.406,17.468,37.641,17.468,37.931z"/>
		<path fill="#773E37" d="M17.138,33.701c0.524-0.026,0.456-0.106,0.446,0.62C17.372,34.152,17.077,34.075,17.138,33.701z"/>
		<path fill="#7B4841" d="M15.545,34.284c0.099-0.214-0.137-0.479,0.167-0.592c0.091-0.033,0.301-0.06,0.311,0.036
			C16.052,34.005,15.878,34.182,15.545,34.284z"/>
		<path fill="#732520" d="M20.716,35.59c-0.035,0.262,0.146,0.694-0.073,0.879c-0.188,0.159-0.605,0.049-0.921,0.049
			c-0.798,0.003-0.798,0.001-0.798-0.798c0-0.271,0-0.542,0-0.813c0-0.047,0-0.094,0-0.141c0-0.107-0.005-0.271,0.088-0.286
			c0.454-0.067,0.34-0.636,0.693-0.761c0.233-0.082,0.461,0.046,0.479,0.275c0.019,0.243,0.101,0.324,0.317,0.385
			c0.149,0.043,0.217,0.203,0.215,0.372C20.714,35.01,20.716,35.269,20.716,35.59z"/>
		<path fill="#652B23" d="M20.717,37.939c-0.027,0.247,0.131,0.64-0.058,0.829c-0.188,0.188-0.581,0.053-0.883,0.056
			c-0.852,0.009-0.853,0.004-0.852-0.853c0-0.283,0.007-0.564-0.003-0.848c-0.005-0.155,0.051-0.2,0.203-0.197
			c0.458,0.008,0.918,0.009,1.376-0.001c0.168-0.003,0.229,0.046,0.22,0.218C20.707,37.389,20.717,37.637,20.717,37.939z"/>
		<path fill="#7D4841" d="M20.821,34.332c-0.254-0.161-0.471-0.304-0.48-0.605C20.833,33.625,20.833,33.625,20.821,34.332z"/>
		<path fill="#733F39" d="M18.741,34.351c0.16-0.256-0.124-0.542,0.209-0.657c0.094-0.032,0.297-0.059,0.313,0.035
			C19.315,34.042,19.05,34.163,18.741,34.351z"/>
		<path fill="#FFFFFF" d="M21.703,9.049c0.006,0.818-0.581,1.467-1.339,1.481c-0.77,0.014-1.387-0.623-1.41-1.457
			c-0.02-0.753,0.648-1.452,1.388-1.451C21.076,7.623,21.697,8.273,21.703,9.049z"/>
		<path fill="#FFFFFF" d="M23.633,7.742c0.758,0.009,1.362,0.653,1.366,1.457c0.004,0.772-0.641,1.445-1.386,1.445
			c-0.739,0.001-1.367-0.677-1.356-1.466C22.267,8.364,22.872,7.733,23.633,7.742z"/>
		<path fill="#FFFFFF" d="M13.333,14.292c-0.001-0.825,0.588-1.459,1.354-1.455c0.749,0.004,1.351,0.638,1.355,1.427
			c0.005,0.827-0.614,1.491-1.382,1.479C13.92,15.732,13.335,15.093,13.333,14.292z"/>
		<path fill="#7FB565" d="M17.383,10.164c0.28,0.101,0.371,0.268,0.292,0.575c-0.087,0.344,0.054,0.706-0.104,1.068
			c-0.377,0.859-1.385,1.207-2.261,0.633c-0.255-0.168-0.419-0.358-0.468-0.652c0.075-0.039,0.14-0.005,0.203,0.031
			c0.324,0.344,0.65,0.667,1.18,0.659c0.82-0.013,1.45-0.834,1.233-1.63c-0.049-0.18-0.14-0.348-0.143-0.539
			C17.321,10.253,17.343,10.204,17.383,10.164z"/>
		<path fill="#88B272" d="M17.383,10.164c-0.004,0.055-0.008,0.11-0.012,0.165c-0.133,0.004-0.208-0.094-0.294-0.169
			c-0.479-0.42-0.961-0.492-1.443-0.215c-0.499,0.285-0.772,0.868-0.678,1.429c0.026,0.156,0.119,0.309,0.047,0.478
			c-0.054-0.021-0.108-0.043-0.161-0.063c0-0.047-0.001-0.095-0.001-0.142c-0.464-1.014,0.63-2.417,1.837-1.978
			C16.963,9.763,17.155,9.989,17.383,10.164z"/>
		<path fill="#F7F4F4" d="M26.709,15.057c0.237-0.187,0.447-0.17,0.649-0.171c0.097-0.001,0.225-0.025,0.262,0.11
			c0.039,0.143-0.134,0.125-0.184,0.216c-0.043,0.081-0.167,0.173-0.256,0.053C27.075,15.119,26.917,15.114,26.709,15.057z"/>
		<path fill="#FFFFFC" d="M35.036,12.715c-0.224-0.015-0.463,0.034-0.604-0.219C34.948,12.227,34.973,12.235,35.036,12.715z"/>
		<path fill="#732520" d="M20.633,37.925c0,0.84,0,0.844-0.848,0.839c-0.897-0.004-0.769,0.115-0.775-0.83
			c-0.005-0.864-0.001-0.864,0.86-0.864c0.763,0,0.763,0,0.763,0.749C20.633,37.854,20.633,37.89,20.633,37.925z"/>
		<path fill="#80B465" d="M20.337,8.18c0.465-0.002,0.846,0.402,0.845,0.896c0,0.504-0.369,0.889-0.849,0.887
			c-0.482-0.002-0.843-0.384-0.842-0.892C19.493,8.567,19.859,8.183,20.337,8.18z"/>
		<path fill="#80B465" d="M23.618,8.305c0.491,0.002,0.84,0.372,0.839,0.892c-0.002,0.499-0.379,0.893-0.854,0.886
			c-0.467-0.006-0.839-0.419-0.827-0.918C22.787,8.676,23.151,8.304,23.618,8.305z"/>
		<path fill="#80B465" d="M13.841,14.271c0.004-0.508,0.366-0.875,0.856-0.867c0.471,0.007,0.848,0.415,0.835,0.901
			c-0.014,0.499-0.391,0.876-0.87,0.871C14.184,15.17,13.837,14.787,13.841,14.271z"/>
		<path fill="#FFFFFF" d="M15.003,11.852c-0.241-0.584-0.23-1.144,0.184-1.649c0.542-0.663,1.399-0.69,1.992-0.075
			c0.064,0.067,0.128,0.135,0.192,0.202c0.23,0.488,0.312,0.981,0.055,1.489C16.949,12.757,15.654,12.914,15.003,11.852z"/>
		<path fill="#80B465" d="M17.054,11.136c0.003,0.515-0.353,0.889-0.843,0.887c-0.46-0.002-0.838-0.385-0.848-0.861
			c-0.011-0.491,0.367-0.903,0.837-0.911C16.672,10.24,17.051,10.633,17.054,11.136z"/>
	</g>
</g>
</svg>
