<?xml version="1.0" encoding="utf-8"?>
<!-- Generator: Adobe Illustrator 16.0.0, SVG Export Plug-In . SVG Version: 6.00 Build 0)  -->
<!DOCTYPE svg PUBLIC "-//W3C//DTD SVG 1.1//EN" "http://www.w3.org/Graphics/SVG/1.1/DTD/svg11.dtd">
<svg version="1.1" id="Layer_1" xmlns="http://www.w3.org/2000/svg" xmlns:xlink="http://www.w3.org/1999/xlink" x="0px" y="0px"
	 width="233px" height="229px" viewBox="12.5 103.5 233 229" enable-background="new 12.5 103.5 233 229" xml:space="preserve">
<path fill="#FFFFFF" stroke="#FFFFFF" stroke-width="3" stroke-miterlimit="10" d="M41.681,107.512v24.001h-24v187.206h57.602v-9.6
	H27.28V141.113h24.001v-24.001h96.003v14.401H60.882v9.6h91.203h19.201v52.802h9.6v-62.402h-24v-24.001H41.681z M46.481,155.514v9.6
	h19.2v-9.6H46.481z M89.683,155.514v9.6h19.201v-9.6H89.683z M132.884,155.514v9.6h19.201v-9.6H132.884z M46.481,179.514v9.601h19.2
	v-9.601H46.481z M89.683,179.514v9.601h19.201v-9.601H89.683z M132.884,179.514v9.601h19.201v-9.601H132.884z M147.284,193.915
	c-15.645,0-27.221,6.351-33.244,15.815c-5.499,8.642-5.761,19.41-2.297,29.458c-0.391,0.649-0.935,1.194-1.275,1.959
	c-0.755,1.696-1.422,3.609-1.322,6.047v0.01c0.258,6.14,3.82,9.341,6.45,11.138c1.112,5.853,3.882,10.743,7.688,14.26v10.275
	c-0.837,2.018-2.538,3.714-5.775,5.504c-3.396,1.878-7.996,3.629-12.732,5.944c-4.736,2.314-9.691,5.255-13.547,9.946
	c-3.856,4.692-6.347,11.129-6.347,19.248v4.8h110.001h5.202h38.655l-0.291-5.081c-0.438-7.573-3.249-13.548-7.209-17.851
	c-3.961-4.303-8.854-6.993-13.491-9.132s-9.097-3.77-12.348-5.503c-3.089-1.648-4.6-3.174-5.316-4.866v-8.101
	c2.866-4.142,4.128-8.905,4.501-13.378c2.281-2.02,4.958-5.136,5.69-10.697c0.524-3.988-0.498-7.007-2.054-9.572
	c2.149-5.685,3.039-12.574,1.145-19.426c-1.096-3.965-3.143-7.863-6.572-10.781c-2.697-2.297-6.373-3.573-10.435-4.135l-3.066-6.282
	h-2.999c-4.948,0-9.803,1.135-13.979,2.785c-1.646,0.65-3.143,1.361-4.546,2.146c-0.79-1.041-1.662-2.036-2.664-2.944
	c-2.913-2.636-6.961-4.144-11.465-4.771l-3.375-6.815H147.284z M46.481,203.515v9.601h19.2v-9.601H46.481z M89.683,203.515v9.601
	h11.925l6.122-9.601H89.683z M144.575,204.069l2.831,5.69h2.972c3.932,0,6.363,1.117,8.288,2.86
	c1.925,1.742,3.334,4.324,4.163,7.358c1.657,6.071,0.248,13.972-1.106,16.136l-1.744,2.784l1.958,2.635
	c1.139,1.527,1.867,3.104,1.491,5.222c-0.527,2.97-1.595,3.357-3.713,5.185l-1.594,1.378l-0.065,2.101
	c-0.153,4.712-1.781,9.438-4.528,12.122l-1.444,1.416v16.106l0.281,0.788c1.891,5.268,6.14,8.552,10.444,10.932
	s8.965,4.116,13.164,6.169c4.198,2.052,7.839,4.359,10.35,7.415c1.738,2.114,2.809,4.946,3.46,8.354H95.186
	c0.651-3.407,1.722-6.239,3.459-8.354c2.512-3.056,6.152-5.363,10.351-7.415c4.198-2.053,8.859-3.789,13.163-6.169
	c4.304-2.38,8.554-5.664,10.444-10.932l0.281-0.788v-16.631l-2.1-1.426c-2.213-1.508-5.85-6.995-6.356-11.926l-0.272-2.652
	l-2.4-1.172c-1.354-0.66-2.871-0.924-3.019-4.454c0,0,0.142-0.925,0.506-1.744c0.364-0.818,1.048-1.676,0.844-1.471l2.306-2.308
	l-1.303-2.999c-3.575-8.25-3.09-16.896,1.05-23.401C125.929,208.924,133.351,204.802,144.575,204.069z M183.567,213.669l2.541,5.203
	h3c3.638,0,5.812,0.958,7.462,2.362s2.835,3.472,3.545,6.037c1.419,5.132,0.376,12.15-1.247,15.349l-1.575,3.112l2.466,2.456
	c-0.316-0.316,1.261,2.3,1.003,4.266c-0.62,4.714-1.286,4.398-3.319,5.738l-2.015,1.331l-0.132,2.409
	c-0.236,4.197-2.328,10.465-3.45,11.616l-1.359,1.396v13.146l0.281,0.787c1.813,5.045,5.95,8.119,10.116,10.341
	s8.703,3.842,12.854,5.756s7.836,4.076,10.444,6.91c1.664,1.807,2.789,4.121,3.609,6.834h-28.079
	c-0.781-5.876-2.918-10.729-5.973-14.447c-3.856-4.691-8.811-7.632-13.547-9.946c-4.736-2.315-9.336-4.066-12.732-5.944
	c-3.237-1.79-4.938-3.486-5.775-5.504v-10.744c3.319-4.188,5.065-9.132,5.551-14.166c1.856-1.641,4.741-4.448,5.644-9.534
	c0.737-4.15-0.509-7.542-2.043-10.304c2.542-5.875,3.3-13.194,1.256-20.682c-0.022-0.079-0.053-0.156-0.075-0.234
	c1.029-0.656,2.338-1.391,3.825-1.979C178.179,214.312,180.925,213.98,183.567,213.669z M46.481,227.516v9.601h19.2v-9.601H46.481z
	 M89.683,227.516v9.601h13.229l-1.725-9.601H89.683z M46.481,251.517v9.601h19.2v-9.601H46.481z M89.683,251.517v9.601h16.557
	l-4.003-9.601H89.683z M46.481,275.518v9.601h19.2v-9.601H46.481z M89.683,275.518v9.601h19.201v-9.601H89.683z"/>
</svg>
