<?xml version="1.0" encoding="utf-8"?>
<!-- Generator: Adobe Illustrator 16.0.0, SVG Export Plug-In . SVG Version: 6.00 Build 0)  -->
<!DOCTYPE svg PUBLIC "-//W3C//DTD SVG 1.1//EN" "http://www.w3.org/Graphics/SVG/1.1/DTD/svg11.dtd">
<svg version="1.1" id="Layer_1" xmlns="http://www.w3.org/2000/svg" xmlns:xlink="http://www.w3.org/1999/xlink" x="0px" y="0px"
	 width="109.864px" height="205.999px" viewBox="0 0 109.864 205.999" enable-background="new 0 0 109.864 205.999"
	 xml:space="preserve">
<g>
	<path fill-rule="evenodd" clip-rule="evenodd" fill="#FFFFFF" d="M109.864,62.556c-0.717,3.697-3.342,5.377-6.582,6.765
		C74.18,81.787,45.129,94.369,16.023,106.826c-1.814,0.776-2.241,1.721-2.237,3.535c0.052,27.528-0.022,55.057,0.097,82.584
		c0.019,4.296-1.264,7.37-5.285,9.09c-0.955,0-1.911,0-2.866,0c-3.067-1.003-4.946-3.103-5.732-6.21C0,133.729,0,71.632,0,9.534
		c0.792-3.103,2.615-5.253,5.735-6.21c2.431-0.74,4.585,0.907,6.591,1.994c30.563,16.562,61.116,33.144,91.706,49.658
		c2.687,1.449,4.91,3.125,5.833,6.147C109.864,61.601,109.864,62.078,109.864,62.556z"/>
</g>
</svg>
